<svg xmlns="http://www.w3.org/2000/svg" xmlns:xlink="http://www.w3.org/1999/xlink" width="1120px" height="300px" viewBox="0 0 580.0746772703269 155.41623428752337"><g id="VPzjdoz3Eo5kggkJumFuJ"><g style=""><g id="Layer_1-2"><path style="stroke: rgb(193,193,193); stroke-width: 0; stroke-dasharray: none; stroke-linecap: butt; stroke-dashoffset: 0; stroke-linejoin: miter; stroke-miterlimit: 4; fill: rgb(33,33,41); fill-rule: nonzero; opacity: 1;" d="M26.95584,67.3976c0,-6.90127 5.59458,-12.49585 12.49585,-12.49585c6.90127,0 12.49585,5.59458 12.49585,12.49585c0,6.90127 -5.59458,12.49585 -12.49585,12.49585c-6.90127,0 -12.49585,-5.59458 -12.49585,-12.49585z" stroke-linecap="round"></path></g></g></g><g id="DHu8Kh2qVpEWVZtpunVcz"><g style=""><g id="Layer_2-2"><path style="stroke: rgb(193,193,193); stroke-width: 0; stroke-dasharray: none; stroke-linecap: butt; stroke-dashoffset: 0; stroke-linejoin: miter; stroke-miterlimit: 4; fill: rgb(33,33,41); fill-rule: nonzero; opacity: 1;" transform="matrix(0.466088 0 0 0.466088 156.479435 79.341183) matrix(1 0 0 1 0 0)  translate(-317, -127.62)" d="M 634.00 137.36 L 634.00 137.36 C 633.99 150.00 628.96 162.12 620.02 171.06 C 611.07 179.99 598.94 185.01 586.30 185.00 L 559.22 185.00 C 554.98 185.00 550.92 186.69 547.93 189.69 C 544.94 192.69 543.27 196.76 543.29 201.00 L 543.29 201.00 C 543.29 212.60 533.89 222.00 522.29 222.00 L 521.66 222.00 C 516.21 221.99 510.99 219.81 507.16 215.94 C 503.33 212.07 501.19 206.83 501.24 201.38 L 501.24 200.38 C 501.24 194.96 503.39 189.77 507.22 185.94 C 511.05 182.11 516.24 179.96 521.66 179.96 L 522.29 179.96 C 531.34 179.96 538.67 172.63 538.67 163.58 L 538.67 140.19 C 538.68 128.46 534.02 117.22 525.73 108.93 C 517.43 100.64 506.19 95.99 494.46 96.00 C 490.81 96.01 487.32 97.46 484.75 100.05 C 482.18 102.64 480.75 106.14 480.77 109.79 L 480.77 110.21 C 480.77 115.93 478.50 121.41 474.46 125.45 C 470.42 129.49 464.94 131.76 459.22 131.76 L 458.70 131.76 C 450.58 131.76 444.00 138.34 444.00 146.46 L 444.00 148.00 C 444.00 159.62 434.58 169.05 422.95 169.05 C 411.33 169.05 401.91 159.62 401.91 148.00 C 401.91 139.03 394.65 131.77 385.68 131.76 L 350.27 131.76 C 341.65 131.76 333.39 135.18 327.29 141.28 C 321.20 147.37 317.78 155.64 317.78 164.26 L 317.78 165.66 C 317.78 183.61 303.23 198.16 285.28 198.16 L 278.60 198.16 C 264.17 198.16 252.48 209.85 252.48 224.28 L 252.48 225.13 C 252.48 233.12 249.31 240.77 243.66 246.42 C 238.01 252.07 230.36 255.24 222.37 255.24 L 221.52 255.24 C 204.40 255.24 190.52 241.36 190.52 224.24 C 190.52 209.81 178.83 198.12 164.40 198.12 L 159.00 198.12 C 126.56 198.12 100.26 171.82 100.26 139.38 L 100.26 139.38 C 100.23 121.59 85.79 107.18 68.00 107.17 L 57.44 107.17 C 48.97 107.17 42.10 114.04 42.10 122.51 L 42.10 123.06 C 42.09 134.39 32.92 143.56 21.59 143.57 L 20.42 143.57 C 9.14 143.56 -0.00 134.42 0.00 123.14 L 0.00 121.88 C -0.00 116.46 2.15 111.27 5.99 107.44 C 9.82 103.61 15.01 101.46 20.43 101.47 L 21.06 101.47 C 25.16 101.47 29.10 99.84 32.00 96.94 C 34.90 94.04 36.52 90.10 36.52 86.00 L 36.52 73.20 C 36.52 54.42 51.74 39.20 70.52 39.20 L 70.52 39.20 C 89.30 39.20 104.52 54.42 104.52 73.20 C 104.52 89.57 117.79 102.84 134.16 102.84 L 134.16 102.84 C 150.47 102.84 166.11 109.31 177.64 120.84 C 189.17 132.37 195.64 148.01 195.64 164.32 L 195.64 167.43 C 195.92 181.54 207.44 192.84 221.56 192.84 C 235.67 192.84 247.19 181.54 247.47 167.43 L 247.47 160.32 C 247.47 151.70 250.89 143.44 256.98 137.34 C 263.08 131.25 271.34 127.83 279.96 127.83 L 279.96 127.83 C 297.91 127.82 312.45 113.28 312.45 95.33 L 312.45 57.49 C 312.45 53.40 310.82 49.47 307.92 46.59 C 305.02 43.70 301.09 42.08 297.00 42.10 L 296.72 42.10 C 285.09 42.08 275.67 32.63 275.68 21.00 L 275.68 20.47 C 275.67 15.05 277.81 9.84 281.64 6.00 C 285.47 2.16 290.68 -0.00 296.10 0.00 L 296.73 0.00 C 308.34 0.03 317.73 9.44 317.73 21.05 C 317.73 29.56 324.62 36.45 333.13 36.45 L 333.39 36.45 C 353.10 36.45 372.00 44.28 385.93 58.22 C 399.87 72.15 407.69 91.05 407.69 110.76 L 407.69 111.82 C 407.70 115.89 409.34 119.80 412.25 122.65 C 415.16 125.50 419.09 127.07 423.16 127.00 L 424.45 127.00 C 432.31 126.99 438.68 120.62 438.69 112.76 L 438.69 111.76 C 438.68 105.91 441.01 100.29 445.14 96.15 C 449.28 92.01 454.90 89.69 460.75 89.69 L 460.87 89.69 C 468.43 89.69 474.56 83.56 474.56 76.00 L 474.56 60.85 C 474.35 48.14 481.00 36.31 491.97 29.89 C 502.95 23.47 516.52 23.47 527.50 29.89 C 538.47 36.31 545.12 48.14 544.91 60.85 C 544.91 68.50 547.95 75.83 553.36 81.24 C 558.77 86.65 566.10 89.69 573.75 89.69 L 586.30 89.69 C 598.95 89.68 611.08 94.70 620.03 103.64 C 628.97 112.58 634.00 124.71 634.00 137.36 Z" stroke-linecap="round"></path></g></g></g><g id="Ss6R3bHLsBP8MlHqWEyE7"><path style="stroke: rgb(33,33,41); stroke-width: 14; stroke-dasharray: none; stroke-linecap: butt; stroke-dashoffset: 0; stroke-linejoin: round; stroke-miterlimit: 4; fill: rgb(33,33,41); fill-rule: nonzero; opacity: 1;" transform="matrix(1 0 0 1 81.657055 59.844936)  translate(1.802485, 36.1)" d="M 45.79 0.00 L 51.25 9.46 C 53.20 9.46 54.90 8.76 56.33 7.37 L 50.87 -2.09 C 49.44 -0.70 47.74 0.00 45.79 0.00 z M 50.87 -2.09 L 56.33 7.37 C 57.76 5.98 58.47 4.27 58.47 2.24 L 53.01 -7.22 C 53.01 -5.19 52.30 -3.48 50.87 -2.09 z M 53.01 -7.22 L 58.47 2.24 L 58.47 -1.37 L 53.01 -10.83 L 53.01 -7.22 z M 53.01 -10.83 L 58.47 -1.37 C 58.47 -2.64 58.17 -3.81 57.56 -4.86 L 52.10 -14.31 C 52.71 -13.26 53.01 -12.10 53.01 -10.83 z M 17.14 -18.92 L 22.60 -9.46 C 22.45 -9.73 22.37 -10.04 22.37 -10.39 L 16.91 -19.85 C 16.91 -19.50 16.99 -19.18 17.14 -18.92 z M 16.91 -19.85 L 22.37 -10.39 C 22.37 -10.89 22.54 -11.30 22.88 -11.63 L 17.42 -21.09 C 17.08 -20.76 16.91 -20.34 16.91 -19.85 z M 17.42 -21.09 L 22.88 -11.63 C 23.22 -12.01 23.65 -12.20 24.18 -12.20 L 18.72 -21.66 C 18.19 -21.66 17.76 -21.47 17.42 -21.09 z M 18.72 -21.66 L 24.18 -12.20 L 54.86 -12.20 L 49.40 -21.66 L 18.72 -21.66 z M 49.40 -21.66 L 54.86 -12.20 C 55.84 -12.20 56.69 -12.54 57.40 -13.21 L 51.94 -22.67 C 51.23 -22.00 50.38 -21.66 49.40 -21.66 z M 51.94 -22.67 L 57.40 -13.21 C 58.11 -13.93 58.47 -14.79 58.47 -15.81 L 53.01 -25.27 C 53.01 -24.25 52.65 -23.38 51.94 -22.67 z M 53.01 -25.27 L 58.47 -15.81 C 58.47 -16.45 58.32 -17.02 58.02 -17.55 L 52.56 -27.01 C 52.86 -26.48 53.01 -25.90 53.01 -25.27 z M 3.42 -14.42 L 8.88 -4.96 C 9.18 -4.43 9.57 -3.93 10.02 -3.46 L 4.56 -12.92 C 4.10 -13.39 3.72 -13.89 3.42 -14.42 z M 4.56 -12.92 L 10.02 -3.46 C 11.41 -2.07 13.12 -1.37 15.15 -1.37 L 9.69 -10.83 C 7.66 -10.83 5.95 -11.53 4.56 -12.92 z M 9.69 -10.83 L 15.15 -1.37 L 42.23 -1.37 L 36.77 -10.83 L 9.69 -10.83 z M 36.77 -10.83 L 42.23 -1.37 C 42.72 -1.37 43.13 -1.18 43.47 -0.80 L 38.01 -10.26 C 37.67 -10.64 37.26 -10.83 36.77 -10.83 z M 38.01 -10.26 L 43.47 -0.80 C 43.62 -0.67 43.73 -0.53 43.82 -0.38 L 38.36 -9.84 C 38.27 -9.99 38.15 -10.13 38.01 -10.26 z M 2.96 -1.72 L 8.42 7.73 C 8.57 7.98 8.74 8.22 8.95 8.44 L 3.49 -1.02 C 3.28 -1.24 3.11 -1.47 2.96 -1.72 z M 3.49 -1.02 L 8.95 8.44 C 9.66 9.12 10.53 9.46 11.54 9.46 L 6.08 0.00 C 5.07 0.00 4.20 -0.34 3.49 -1.02 z M 6.08 0.00 L 11.54 9.46 L 51.25 9.46 L 45.79 0.00 L 6.08 0.00 z M 45.79 0.00 C 47.74 0.00 49.44 -0.70 50.87 -2.09 C 52.30 -3.48 53.01 -5.19 53.01 -7.22 L 53.01 -10.83 C 53.01 -12.10 52.71 -13.26 52.10 -14.31 C 51.78 -14.87 51.37 -15.40 50.87 -15.90 C 49.48 -17.33 47.78 -18.05 45.79 -18.05 L 18.72 -18.05 C 18.19 -18.05 17.76 -18.22 17.42 -18.56 C 17.31 -18.67 17.22 -18.79 17.14 -18.92 C 16.99 -19.18 16.91 -19.50 16.91 -19.85 C 16.91 -20.34 17.08 -20.76 17.42 -21.09 C 17.76 -21.47 18.19 -21.66 18.72 -21.66 L 49.40 -21.66 C 50.38 -21.66 51.23 -22.00 51.94 -22.67 C 52.65 -23.38 53.01 -24.25 53.01 -25.27 C 53.01 -25.90 52.86 -26.48 52.56 -27.01 C 52.39 -27.29 52.19 -27.55 51.94 -27.80 C 51.23 -28.52 50.38 -28.88 49.40 -28.88 L 9.69 -28.88 C 7.70 -28.88 5.99 -28.16 4.56 -26.73 C 3.17 -25.34 2.48 -23.65 2.48 -21.66 L 2.48 -18.05 C 2.48 -16.71 2.79 -15.50 3.42 -14.42 C 3.72 -13.89 4.10 -13.39 4.56 -12.92 C 5.95 -11.53 7.66 -10.83 9.69 -10.83 L 36.77 -10.83 C 37.26 -10.83 37.67 -10.64 38.01 -10.26 C 38.16 -10.13 38.27 -9.99 38.36 -9.84 C 38.50 -9.59 38.57 -9.32 38.57 -9.02 C 38.57 -8.49 38.38 -8.06 38.01 -7.73 C 37.67 -7.39 37.26 -7.22 36.77 -7.22 L 6.08 -7.22 C 5.07 -7.22 4.20 -6.86 3.49 -6.15 C 2.82 -5.44 2.48 -4.59 2.48 -3.61 C 2.48 -2.91 2.64 -2.28 2.96 -1.72 C 3.11 -1.48 3.28 -1.24 3.49 -1.02 C 4.20 -0.34 5.07 -0.00 6.08 -0.00 z M 99.93 0.00 L 105.39 9.46 C 107.35 9.46 109.04 8.76 110.47 7.37 L 105.01 -2.09 C 103.58 -0.70 101.89 0.00 99.93 0.00 z M 105.01 -2.09 L 110.47 7.37 C 111.90 5.98 112.61 4.27 112.61 2.24 L 107.15 -7.22 C 107.15 -5.19 106.44 -3.48 105.01 -2.09 z M 107.15 -7.22 L 112.61 2.24 L 112.61 -12.20 L 107.15 -21.66 L 107.15 -7.22 z M 107.15 -21.66 L 112.61 -12.20 C 112.61 -13.47 112.31 -14.64 111.70 -15.69 L 106.24 -25.14 C 106.85 -24.09 107.15 -22.93 107.15 -21.66 z M 57.56 -3.60 L 63.02 5.86 C 63.32 6.39 63.71 6.90 64.17 7.37 L 58.71 -2.09 C 58.25 -2.56 57.86 -3.07 57.56 -3.60 z M 58.71 -2.09 L 64.17 7.37 C 65.56 8.76 67.27 9.46 69.30 9.46 L 63.84 0.00 C 61.81 0.00 60.10 -0.70 58.71 -2.09 z M 63.84 0.00 L 69.30 9.46 L 105.39 9.46 L 99.93 0.00 L 63.84 0.00 z M 99.93 0.00 C 101.89 0.00 103.58 -0.70 105.01 -2.09 C 106.44 -3.48 107.15 -5.19 107.15 -7.22 L 107.15 -21.66 C 107.15 -22.93 106.85 -24.09 106.24 -25.14 C 105.92 -25.70 105.51 -26.23 105.01 -26.73 C 103.62 -28.16 101.92 -28.88 99.93 -28.88 L 63.84 -28.88 C 61.85 -28.88 60.14 -28.16 58.71 -26.73 C 57.32 -25.34 56.62 -23.65 56.62 -21.66 L 56.62 -7.22 C 56.62 -5.89 56.93 -4.68 57.56 -3.60 C 57.86 -3.07 58.25 -2.56 58.71 -2.09 C 60.10 -0.70 61.81 -0.00 63.84 -0.00 z M 71.55 -16.15 L 77.01 -6.69 C 76.68 -7.26 76.52 -7.89 76.52 -8.59 L 71.06 -18.05 C 71.06 -17.35 71.22 -16.71 71.55 -16.15 z M 71.06 -18.05 L 76.52 -8.59 C 76.52 -9.57 76.86 -10.41 77.53 -11.13 L 72.07 -20.59 C 71.40 -19.87 71.06 -19.02 71.06 -18.05 z M 72.07 -20.59 L 77.53 -11.13 C 78.24 -11.85 79.11 -12.20 80.13 -12.20 L 74.67 -21.66 C 73.65 -21.66 72.78 -21.30 72.07 -20.59 z M 74.67 -21.66 L 80.13 -12.20 L 94.56 -12.20 L 89.10 -21.66 L 74.67 -21.66 z M 89.10 -21.66 L 94.56 -12.20 C 95.54 -12.20 96.39 -11.85 97.10 -11.13 L 91.64 -20.59 C 90.93 -21.30 90.08 -21.66 89.10 -21.66 z M 91.64 -20.59 L 97.10 -11.13 C 97.35 -10.88 97.55 -10.62 97.71 -10.34 L 92.25 -19.80 C 92.09 -20.08 91.89 -20.34 91.64 -20.59 z M 74.67 -14.44 C 73.65 -14.44 72.78 -14.78 72.07 -15.45 C 71.86 -15.67 71.69 -15.90 71.55 -16.15 C 71.22 -16.71 71.06 -17.35 71.06 -18.05 C 71.06 -19.02 71.40 -19.87 72.07 -20.59 C 72.78 -21.30 73.65 -21.66 74.67 -21.66 L 89.10 -21.66 C 90.08 -21.66 90.93 -21.30 91.64 -20.59 C 91.89 -20.34 92.09 -20.08 92.25 -19.80 C 92.56 -19.27 92.71 -18.69 92.71 -18.05 C 92.71 -17.04 92.35 -16.17 91.64 -15.45 C 90.93 -14.78 90.08 -14.44 89.10 -14.44 z M 154.08 0.00 L 159.54 9.46 C 161.49 9.46 163.18 8.76 164.61 7.37 L 159.15 -2.09 C 157.72 -0.70 156.03 0.00 154.08 0.00 z M 159.15 -2.09 L 164.61 7.37 C 166.04 5.98 166.76 4.27 166.76 2.24 L 161.30 -7.22 C 161.30 -5.19 160.58 -3.48 159.15 -2.09 z M 161.30 -7.22 L 166.76 2.24 L 166.76 -15.81 L 161.30 -25.27 L 161.30 -7.22 z M 161.30 -25.27 L 166.76 -15.81 C 166.76 -16.44 166.61 -17.02 166.31 -17.54 L 160.85 -26.99 C 161.15 -26.47 161.30 -25.90 161.30 -25.27 z M 125.68 -12.55 L 131.14 -3.10 C 130.82 -3.66 130.66 -4.28 130.66 -4.98 L 125.20 -14.44 C 125.20 -13.74 125.36 -13.11 125.68 -12.55 z M 125.20 -14.44 L 130.66 -4.98 L 130.66 -15.81 L 125.20 -25.27 L 125.20 -14.44 z M 125.20 -25.27 L 130.66 -15.81 C 130.66 -16.45 130.51 -17.02 130.21 -17.55 L 124.75 -27.01 C 125.05 -26.48 125.20 -25.90 125.20 -25.27 z M 111.70 -3.60 L 117.16 5.86 C 117.46 6.39 117.85 6.90 118.31 7.37 L 112.85 -2.09 C 112.39 -2.56 112.00 -3.07 111.70 -3.60 z M 112.85 -2.09 L 118.31 7.37 C 119.70 8.76 121.41 9.46 123.44 9.46 L 117.98 0.00 C 115.95 0.00 114.24 -0.70 112.85 -2.09 z M 117.98 0.00 L 123.44 9.46 L 159.54 9.46 L 154.08 0.00 L 117.98 0.00 z M 154.08 0.00 C 156.03 0.00 157.72 -0.70 159.15 -2.09 C 160.58 -3.48 161.30 -5.19 161.30 -7.22 L 161.30 -25.27 C 161.30 -25.90 161.15 -26.47 160.85 -26.99 C 160.68 -27.28 160.48 -27.55 160.22 -27.80 C 159.51 -28.52 158.66 -28.88 157.69 -28.88 L 150.47 -28.88 C 149.45 -28.88 148.58 -28.52 147.87 -27.80 C 147.20 -27.09 146.86 -26.22 146.86 -25.21 L 146.86 -14.44 C 146.86 -13.43 146.50 -12.56 145.79 -11.84 C 145.07 -11.17 144.22 -10.83 143.25 -10.83 L 128.81 -10.83 C 127.80 -10.83 126.93 -11.17 126.22 -11.84 C 126.01 -12.06 125.83 -12.30 125.68 -12.55 C 125.36 -13.11 125.20 -13.74 125.20 -14.44 L 125.20 -25.27 C 125.20 -25.90 125.05 -26.48 124.75 -27.01 C 124.58 -27.29 124.38 -27.55 124.13 -27.80 C 123.42 -28.52 122.57 -28.88 121.59 -28.88 L 114.37 -28.88 C 113.36 -28.88 112.49 -28.52 111.78 -27.80 C 111.10 -27.09 110.76 -26.22 110.76 -25.21 L 110.76 -7.22 C 110.76 -5.89 111.07 -4.68 111.70 -3.60 C 112.00 -3.07 112.39 -2.56 112.85 -2.09 C 114.24 -0.70 115.95 0.00 117.98 0.00 z M 175.73 0.00 L 181.19 9.46 C 182.17 9.46 183.02 9.12 183.73 8.44 L 178.27 -1.02 C 177.56 -0.34 176.71 0.00 175.73 0.00 z M 178.27 -1.02 L 183.73 8.44 C 184.44 7.72 184.80 6.86 184.80 5.85 L 179.34 -3.61 C 179.34 -2.60 178.98 -1.73 178.27 -1.02 z M 179.34 -3.61 L 184.80 5.85 C 184.80 5.21 184.65 4.63 184.35 4.10 L 178.88 -5.36 C 179.19 -4.83 179.34 -4.25 179.34 -3.61 z M 172.35 -8.09 L 177.81 1.37 C 177.66 1.10 177.58 0.79 177.58 0.44 L 172.12 -9.02 C 172.12 -8.67 172.20 -8.35 172.35 -8.09 z M 172.12 -9.02 L 177.58 0.44 C 177.58 -0.06 177.75 -0.47 178.09 -0.80 L 172.63 -10.26 C 172.29 -9.93 172.12 -9.51 172.12 -9.02 z M 172.63 -10.26 L 178.09 -0.80 C 178.43 -1.18 178.86 -1.37 179.39 -1.37 L 173.93 -10.83 C 173.40 -10.83 172.97 -10.64 172.63 -10.26 z M 173.93 -10.83 L 179.39 -1.37 L 181.19 -1.37 L 175.73 -10.83 L 173.93 -10.83 z M 175.73 -10.83 L 181.19 -1.37 C 182.17 -1.37 183.02 -1.71 183.73 -2.38 L 178.27 -11.84 C 177.56 -11.17 176.71 -10.83 175.73 -10.83 z M 178.27 -11.84 L 183.73 -2.38 C 184.44 -3.10 184.80 -3.97 184.80 -4.98 L 179.34 -14.44 C 179.34 -13.43 178.98 -12.56 178.27 -11.84 z M 179.34 -14.44 L 184.80 -4.98 L 184.80 -23.03 L 179.34 -32.49 L 179.34 -14.44 z M 179.34 -32.49 L 184.80 -23.03 C 184.80 -23.67 184.65 -24.24 184.35 -24.77 L 178.89 -34.23 C 179.19 -33.70 179.34 -33.12 179.34 -32.49 z M 165.85 -3.59 L 171.31 5.87 C 171.61 6.40 172.00 6.90 172.45 7.37 L 166.99 -2.09 C 166.53 -2.56 166.15 -3.06 165.85 -3.59 z M 166.99 -2.09 L 172.45 7.37 C 173.84 8.76 175.55 9.46 177.58 9.46 L 172.12 0.00 C 170.09 0.00 168.38 -0.70 166.99 -2.09 z M 172.12 0.00 L 177.58 9.46 L 181.19 9.46 L 175.73 0.00 L 172.12 0.00 z M 175.73 0.00 C 176.71 0.00 177.56 -0.34 178.27 -1.02 C 178.98 -1.73 179.34 -2.60 179.34 -3.61 C 179.34 -4.25 179.19 -4.83 178.88 -5.36 C 178.72 -5.64 178.52 -5.90 178.27 -6.15 C 177.56 -6.86 176.71 -7.22 175.73 -7.22 L 173.93 -7.22 C 173.40 -7.22 172.97 -7.39 172.63 -7.73 C 172.52 -7.84 172.43 -7.96 172.35 -8.09 C 172.20 -8.35 172.12 -8.67 172.12 -9.02 C 172.12 -9.51 172.29 -9.93 172.63 -10.26 C 172.97 -10.64 173.40 -10.83 173.93 -10.83 L 175.73 -10.83 C 176.71 -10.83 177.56 -11.17 178.27 -11.84 C 178.98 -12.56 179.34 -13.43 179.34 -14.44 L 179.34 -32.49 C 179.34 -33.12 179.19 -33.70 178.89 -34.23 C 178.72 -34.51 178.52 -34.77 178.27 -35.02 C 177.56 -35.74 176.71 -36.10 175.73 -36.10 L 168.51 -36.10 C 167.50 -36.10 166.63 -35.74 165.92 -35.02 C 165.25 -34.31 164.91 -33.44 164.91 -32.43 L 164.91 -7.22 C 164.91 -5.88 165.22 -4.67 165.85 -3.59 C 166.15 -3.06 166.53 -2.56 166.99 -2.09 C 168.38 -0.70 170.09 -0.00 172.12 -0.00 z M 226.27 0.00 L 231.73 9.46 C 233.68 9.46 235.37 8.76 236.80 7.37 L 231.34 -2.09 C 229.91 -0.70 228.22 0.00 226.27 0.00 z M 231.34 -2.09 L 236.80 7.37 C 238.23 5.98 238.95 4.27 238.95 2.24 L 233.49 -7.22 C 233.49 -5.19 232.77 -3.48 231.34 -2.09 z M 233.49 -7.22 L 238.95 2.24 L 238.95 -12.20 L 233.49 -21.66 L 233.49 -7.22 z M 233.49 -21.66 L 238.95 -12.20 C 238.95 -13.47 238.65 -14.63 238.04 -15.67 L 232.58 -25.13 C 233.19 -24.08 233.49 -22.93 233.49 -21.66 z M 197.87 -30.60 L 203.33 -21.15 C 203.01 -21.70 202.85 -22.33 202.85 -23.03 L 197.39 -32.49 C 197.39 -31.79 197.55 -31.16 197.87 -30.60 z M 197.39 -32.49 L 202.85 -23.03 C 202.85 -23.67 202.70 -24.24 202.40 -24.77 L 196.94 -34.23 C 197.24 -33.70 197.39 -33.12 197.39 -32.49 z M 183.43 -1.74 L 188.89 7.72 C 189.04 7.97 189.22 8.21 189.43 8.44 L 183.97 -1.02 C 183.76 -1.24 183.58 -1.48 183.43 -1.74 z M 183.97 -1.02 L 189.43 8.44 C 190.14 9.12 191.01 9.46 192.02 9.46 L 186.56 0.00 C 185.55 0.00 184.68 -0.34 183.97 -1.02 z M 186.56 0.00 L 192.02 9.46 L 231.73 9.46 L 226.27 0.00 L 186.56 0.00 z M 226.27 0.00 C 228.22 0.00 229.91 -0.70 231.34 -2.09 C 232.77 -3.48 233.49 -5.19 233.49 -7.22 L 233.49 -21.66 C 233.49 -22.93 233.19 -24.08 232.58 -25.13 C 232.26 -25.70 231.84 -26.23 231.34 -26.73 C 229.95 -28.16 228.26 -28.88 226.27 -28.88 L 201.00 -28.88 C 199.99 -28.88 199.12 -29.22 198.41 -29.89 C 198.20 -30.11 198.02 -30.35 197.87 -30.60 C 197.55 -31.16 197.39 -31.79 197.39 -32.49 C 197.39 -33.12 197.24 -33.70 196.94 -34.23 C 196.77 -34.51 196.57 -34.77 196.32 -35.02 C 195.61 -35.74 194.76 -36.10 193.78 -36.10 L 186.56 -36.10 C 185.55 -36.10 184.68 -35.74 183.97 -35.02 C 183.29 -34.31 182.95 -33.44 182.95 -32.43 L 182.95 -3.61 C 182.95 -2.92 183.11 -2.29 183.43 -1.74 C 183.58 -1.48 183.76 -1.24 183.97 -1.02 C 184.68 -0.34 185.55 -0.00 186.56 -0.00 z M 190.65 -12.55 L 196.11 -3.10 C 195.79 -3.66 195.63 -4.28 195.63 -4.98 L 190.17 -14.44 C 190.17 -13.74 190.33 -13.11 190.65 -12.55 z M 190.17 -14.44 L 195.63 -4.98 L 195.63 -8.59 L 190.17 -18.05 L 190.17 -14.44 z M 190.17 -18.05 L 195.63 -8.59 C 195.63 -9.57 195.97 -10.41 196.65 -11.13 L 191.19 -20.59 C 190.51 -19.87 190.17 -19.02 190.17 -18.05 z M 191.19 -20.59 L 196.65 -11.13 C 197.36 -11.85 198.23 -12.20 199.24 -12.20 L 193.78 -21.66 C 192.77 -21.66 191.90 -21.30 191.19 -20.59 z M 193.78 -21.66 L 199.24 -12.20 L 220.90 -12.20 L 215.44 -21.66 L 193.78 -21.66 z M 215.44 -21.66 L 220.90 -12.20 C 221.88 -12.20 222.73 -11.85 223.44 -11.13 L 217.98 -20.59 C 217.27 -21.30 216.42 -21.66 215.44 -21.66 z M 217.98 -20.59 L 223.44 -11.13 C 223.69 -10.88 223.89 -10.62 224.05 -10.34 L 218.59 -19.80 C 218.43 -20.08 218.23 -20.34 217.98 -20.59 z M 193.78 -10.83 C 192.77 -10.83 191.90 -11.17 191.19 -11.84 C 190.98 -12.06 190.80 -12.30 190.65 -12.55 C 190.33 -13.11 190.17 -13.74 190.17 -14.44 L 190.17 -18.05 C 190.17 -19.02 190.51 -19.87 191.19 -20.59 C 191.90 -21.30 192.77 -21.66 193.78 -21.66 L 215.44 -21.66 C 216.42 -21.66 217.27 -21.30 217.98 -20.59 C 218.23 -20.34 218.43 -20.08 218.59 -19.80 C 218.90 -19.27 219.05 -18.69 219.05 -18.05 C 219.05 -16.06 218.34 -14.35 216.91 -12.92 C 215.48 -11.53 213.78 -10.83 211.83 -10.83 z M 280.41 0.00 L 285.87 9.46 C 287.82 9.46 289.52 8.76 290.95 7.37 L 285.49 -2.09 C 284.06 -0.70 282.36 0.00 280.41 0.00 z M 285.49 -2.09 L 290.95 7.37 C 292.38 5.98 293.09 4.27 293.09 2.24 L 287.63 -7.22 C 287.63 -5.19 286.92 -3.48 285.49 -2.09 z M 287.63 -7.22 L 293.09 2.24 L 293.09 -12.20 L 287.63 -21.66 L 287.63 -7.22 z M 287.63 -21.66 L 293.09 -12.20 C 293.09 -13.47 292.79 -14.64 292.18 -15.69 L 286.72 -25.14 C 287.33 -24.09 287.63 -22.93 287.63 -21.66 z M 238.04 -3.59 L 243.50 5.87 C 243.80 6.40 244.19 6.90 244.64 7.37 L 239.18 -2.09 C 238.72 -2.56 238.34 -3.06 238.04 -3.59 z M 239.18 -2.09 L 244.64 7.37 C 246.03 8.76 247.75 9.46 249.78 9.46 L 244.32 0.00 C 242.29 0.00 240.57 -0.70 239.18 -2.09 z M 244.32 0.00 L 249.78 9.46 L 285.87 9.46 L 280.41 0.00 L 244.32 0.00 z M 280.41 0.00 C 282.36 0.00 284.06 -0.70 285.49 -2.09 C 286.92 -3.48 287.63 -5.19 287.63 -7.22 L 287.63 -21.66 C 287.63 -22.93 287.33 -24.09 286.72 -25.14 C 286.40 -25.70 285.99 -26.23 285.49 -26.73 C 284.10 -28.16 282.40 -28.88 280.41 -28.88 L 244.32 -28.88 C 242.33 -28.88 240.61 -28.16 239.18 -26.73 C 237.79 -25.34 237.10 -23.65 237.10 -21.66 L 237.10 -7.22 C 237.10 -5.88 237.41 -4.67 238.04 -3.59 C 238.34 -3.06 238.72 -2.56 239.18 -2.09 C 240.57 -0.70 242.29 -0.00 244.32 -0.00 z M 252.01 -16.16 L 257.47 -6.71 C 257.15 -7.27 256.99 -7.89 256.99 -8.59 L 251.53 -18.05 C 251.53 -17.35 251.69 -16.72 252.01 -16.16 z M 251.53 -18.05 L 256.99 -8.59 C 256.99 -9.57 257.33 -10.41 258.01 -11.13 L 252.55 -20.59 C 251.87 -19.87 251.53 -19.02 251.53 -18.05 z M 252.55 -20.59 L 258.01 -11.13 C 258.72 -11.85 259.59 -12.20 260.60 -12.20 L 255.14 -21.66 C 254.13 -21.66 253.26 -21.30 252.55 -20.59 z M 255.14 -21.66 L 260.60 -12.20 L 275.04 -12.20 L 269.58 -21.66 L 255.14 -21.66 z M 269.58 -21.66 L 275.04 -12.20 C 276.02 -12.20 276.87 -11.85 277.58 -11.13 L 272.12 -20.59 C 271.41 -21.30 270.56 -21.66 269.58 -21.66 z M 272.12 -20.59 L 277.58 -11.13 C 277.83 -10.88 278.03 -10.62 278.19 -10.34 L 272.73 -19.80 C 272.57 -20.08 272.37 -20.34 272.12 -20.59 z M 255.14 -14.44 C 254.13 -14.44 253.26 -14.78 252.55 -15.45 C 252.34 -15.67 252.16 -15.91 252.01 -16.16 C 251.69 -16.72 251.53 -17.35 251.53 -18.05 C 251.53 -19.02 251.87 -19.87 252.55 -20.59 C 253.26 -21.30 254.13 -21.66 255.14 -21.66 L 269.58 -21.66 C 270.56 -21.66 271.41 -21.30 272.12 -20.59 C 272.37 -20.34 272.57 -20.08 272.73 -19.80 C 273.04 -19.27 273.19 -18.69 273.19 -18.05 C 273.19 -17.04 272.83 -16.17 272.12 -15.45 C 271.41 -14.78 270.56 -14.44 269.58 -14.44 z M 334.55 0.00 L 340.01 9.46 C 341.97 9.46 343.66 8.76 345.09 7.37 L 339.63 -2.09 C 338.20 -0.70 336.51 0.00 334.55 0.00 z M 339.63 -2.09 L 345.09 7.37 C 346.52 5.98 347.23 4.27 347.23 2.24 L 341.77 -7.22 C 341.77 -5.19 341.06 -3.48 339.63 -2.09 z M 341.77 -7.22 L 347.23 2.24 L 347.23 -15.81 L 341.77 -25.27 L 341.77 -7.22 z M 341.77 -25.27 L 347.23 -15.81 C 347.23 -16.45 347.08 -17.02 346.78 -17.55 L 341.32 -27.01 C 341.62 -26.48 341.77 -25.90 341.77 -25.27 z M 306.17 -12.54 L 311.63 -3.08 C 311.30 -3.65 311.14 -4.28 311.14 -4.98 L 305.68 -14.44 C 305.68 -13.74 305.84 -13.10 306.17 -12.54 z M 305.68 -14.44 L 311.14 -4.98 L 311.14 -15.81 L 305.68 -25.27 L 305.68 -14.44 z M 305.68 -25.27 L 311.14 -15.81 C 311.14 -16.45 310.99 -17.02 310.69 -17.55 L 305.23 -27.01 C 305.53 -26.48 305.68 -25.90 305.68 -25.27 z M 292.18 -3.60 L 297.64 5.86 C 297.94 6.39 298.33 6.90 298.79 7.37 L 293.33 -2.09 C 292.87 -2.56 292.48 -3.07 292.18 -3.60 z M 293.33 -2.09 L 298.79 7.37 C 300.18 8.76 301.89 9.46 303.92 9.46 L 298.46 0.00 C 296.43 0.00 294.72 -0.70 293.33 -2.09 z M 298.46 0.00 L 303.92 9.46 L 340.01 9.46 L 334.55 0.00 L 298.46 0.00 z M 334.55 0.00 C 336.51 0.00 338.20 -0.70 339.63 -2.09 C 341.06 -3.48 341.77 -5.19 341.77 -7.22 L 341.77 -25.27 C 341.77 -25.90 341.62 -26.48 341.32 -27.01 C 341.15 -27.29 340.95 -27.55 340.70 -27.80 C 339.99 -28.52 339.14 -28.88 338.16 -28.88 L 330.94 -28.88 C 329.93 -28.88 329.06 -28.52 328.35 -27.80 C 327.68 -27.09 327.34 -26.22 327.34 -25.21 L 327.34 -14.44 C 327.34 -13.43 326.98 -12.56 326.26 -11.84 C 325.55 -11.17 324.70 -10.83 323.73 -10.83 L 309.29 -10.83 C 308.27 -10.83 307.40 -11.17 306.69 -11.84 C 306.48 -12.06 306.31 -12.29 306.17 -12.54 C 305.84 -13.10 305.68 -13.74 305.68 -14.44 L 305.68 -25.27 C 305.68 -25.90 305.53 -26.48 305.23 -27.01 C 305.06 -27.29 304.86 -27.55 304.61 -27.80 C 303.89 -28.52 303.04 -28.88 302.07 -28.88 L 294.85 -28.88 C 293.84 -28.88 292.97 -28.52 292.25 -27.80 C 291.58 -27.09 291.24 -26.22 291.24 -25.21 L 291.24 -7.22 C 291.24 -5.89 291.55 -4.68 292.18 -3.60 C 292.48 -3.07 292.87 -2.56 293.33 -2.09 C 294.72 -0.70 296.43 -0.00 298.46 -0.00 z M 356.21 0.00 L 361.67 9.46 C 362.65 9.46 363.50 9.12 364.21 8.44 L 358.75 -1.02 C 358.04 -0.34 357.19 0.00 356.21 0.00 z M 358.75 -1.02 L 364.21 8.44 C 364.92 7.72 365.28 6.86 365.28 5.85 L 359.82 -3.61 C 359.82 -2.60 359.46 -1.73 358.75 -1.02 z M 359.82 -3.61 L 365.28 5.85 L 365.28 -4.98 L 359.82 -14.44 L 359.82 -3.61 z M 359.82 -14.44 L 365.28 -4.98 C 365.28 -5.96 365.62 -6.80 366.30 -7.52 L 360.84 -16.98 C 360.16 -16.26 359.82 -15.41 359.82 -14.44 z M 360.84 -16.98 L 366.30 -7.52 C 367.01 -8.24 367.88 -8.59 368.89 -8.59 L 363.43 -18.05 C 362.42 -18.05 361.55 -17.69 360.84 -16.98 z M 363.43 -18.05 L 368.89 -8.59 L 383.33 -8.59 L 377.87 -18.05 L 363.43 -18.05 z M 377.87 -18.05 L 383.33 -8.59 C 384.31 -8.59 385.16 -8.24 385.87 -7.52 L 380.41 -16.98 C 379.70 -17.69 378.85 -18.05 377.87 -18.05 z M 380.41 -16.98 L 385.87 -7.52 C 386.12 -7.27 386.32 -7.01 386.48 -6.73 L 381.02 -16.19 C 380.86 -16.47 380.66 -16.73 380.41 -16.98 z M 381.96 -1.72 L 387.42 7.73 C 387.57 7.98 387.74 8.22 387.95 8.44 L 382.49 -1.02 C 382.28 -1.24 382.11 -1.47 381.96 -1.72 z M 382.49 -1.02 L 387.95 8.44 C 388.67 9.12 389.54 9.46 390.55 9.46 L 385.09 0.00 C 384.08 0.00 383.21 -0.34 382.49 -1.02 z M 385.09 0.00 L 390.55 9.46 L 397.77 9.46 L 392.31 0.00 L 385.09 0.00 z M 392.31 0.00 L 397.77 9.46 C 398.74 9.46 399.59 9.12 400.31 8.44 L 394.85 -1.02 C 394.13 -0.34 393.28 0.00 392.31 0.00 z M 394.85 -1.02 L 400.31 8.44 C 401.02 7.72 401.38 6.86 401.38 5.85 L 395.92 -3.61 C 395.92 -2.60 395.56 -1.73 394.85 -1.02 z M 395.92 -3.61 L 401.38 5.85 L 401.38 -12.20 L 395.92 -21.66 L 395.92 -3.61 z M 395.92 -21.66 L 401.38 -12.20 C 401.38 -13.47 401.08 -14.63 400.47 -15.67 L 395.01 -25.13 C 395.62 -24.08 395.92 -22.93 395.92 -21.66 z M 345.86 -1.74 L 351.32 7.72 C 351.47 7.97 351.65 8.21 351.86 8.44 L 346.40 -1.02 C 346.19 -1.24 346.01 -1.48 345.86 -1.74 z M 346.40 -1.02 L 351.86 8.44 C 352.57 9.12 353.44 9.46 354.45 9.46 L 348.99 0.00 C 347.98 0.00 347.11 -0.34 346.40 -1.02 z M 348.99 0.00 L 354.45 9.46 L 361.67 9.46 L 356.21 0.00 L 348.99 0.00 z M 356.21 0.00 C 357.19 0.00 358.04 -0.34 358.75 -1.02 C 359.46 -1.73 359.82 -2.60 359.82 -3.61 L 359.82 -14.44 C 359.82 -15.41 360.16 -16.26 360.84 -16.98 C 361.55 -17.69 362.42 -18.05 363.43 -18.05 L 377.87 -18.05 C 378.85 -18.05 379.70 -17.69 380.41 -16.98 C 380.66 -16.73 380.86 -16.47 381.02 -16.19 C 381.33 -15.66 381.48 -15.08 381.48 -14.44 L 381.48 -3.61 C 381.48 -2.91 381.64 -2.28 381.96 -1.72 C 382.11 -1.48 382.28 -1.24 382.49 -1.02 C 383.21 -0.34 384.08 -0.00 385.09 -0.00 L 392.31 -0.00 C 393.28 -0.00 394.13 -0.34 394.85 -1.02 C 395.56 -1.73 395.92 -2.60 395.92 -3.61 L 395.92 -21.66 C 395.92 -22.93 395.62 -24.08 395.01 -25.13 C 394.69 -25.70 394.27 -26.23 393.77 -26.73 C 392.38 -28.16 390.69 -28.88 388.70 -28.88 L 352.60 -28.88 C 350.61 -28.88 348.90 -28.16 347.47 -26.73 C 346.08 -25.34 345.38 -23.65 345.38 -21.66 L 345.38 -3.61 C 345.38 -2.92 345.54 -2.29 345.86 -1.74 C 346.01 -1.48 346.19 -1.24 346.40 -1.02 C 347.11 -0.34 347.98 -0.00 348.99 -0.00 z M 446.45 0.00 L 451.91 9.46 C 452.89 9.46 453.74 9.12 454.45 8.44 L 448.99 -1.02 C 448.28 -0.34 447.43 0.00 446.45 0.00 z M 448.99 -1.02 L 454.45 8.44 C 455.16 7.72 455.52 6.86 455.52 5.85 L 450.06 -3.61 C 450.06 -2.60 449.70 -1.73 448.99 -1.02 z M 450.06 -3.61 L 455.52 5.85 L 455.52 -23.03 L 450.06 -32.49 L 450.06 -3.61 z M 450.06 -32.49 L 455.52 -23.03 C 455.52 -23.67 455.37 -24.24 455.07 -24.77 L 449.61 -34.23 C 449.91 -33.70 450.06 -33.12 450.06 -32.49 z M 435.62 -32.43 L 441.08 -22.97 L 441.08 -23.03 L 435.62 -32.49 L 435.62 -32.43 z M 400.47 -3.59 L 405.93 5.87 C 406.23 6.40 406.62 6.90 407.07 7.37 L 401.61 -2.09 C 401.15 -2.56 400.77 -3.06 400.47 -3.59 z M 401.61 -2.09 L 407.07 7.37 C 408.46 8.76 410.18 9.46 412.21 9.46 L 406.75 0.00 C 404.72 0.00 403.00 -0.70 401.61 -2.09 z M 406.75 0.00 L 412.21 9.46 L 451.91 9.46 L 446.45 0.00 L 406.75 0.00 z M 446.45 0.00 C 447.43 0.00 448.28 -0.34 448.99 -1.02 C 449.70 -1.73 450.06 -2.60 450.06 -3.61 L 450.06 -32.49 C 450.06 -33.12 449.91 -33.70 449.61 -34.23 C 449.44 -34.51 449.24 -34.77 448.99 -35.02 C 448.28 -35.74 447.43 -36.10 446.45 -36.10 L 439.23 -36.10 C 438.22 -36.10 437.35 -35.74 436.64 -35.02 C 435.96 -34.31 435.62 -33.44 435.62 -32.43 L 435.62 -32.49 C 435.62 -31.47 435.26 -30.60 434.55 -29.89 C 433.84 -29.22 432.99 -28.88 432.01 -28.88 L 406.75 -28.88 C 404.76 -28.88 403.04 -28.16 401.61 -26.73 C 400.22 -25.34 399.53 -23.65 399.53 -21.66 L 399.53 -7.22 C 399.53 -5.88 399.84 -4.67 400.47 -3.59 C 400.77 -3.06 401.15 -2.56 401.61 -2.09 C 403.00 -0.70 404.72 -0.00 406.75 -0.00 z M 414.90 -14.43 L 420.36 -4.97 C 419.73 -6.05 419.42 -7.26 419.42 -8.59 L 413.96 -18.05 C 413.96 -16.72 414.27 -15.51 414.90 -14.43 z M 413.96 -18.05 L 419.42 -8.59 C 419.42 -9.57 419.76 -10.41 420.44 -11.13 L 414.98 -20.59 C 414.30 -19.87 413.96 -19.02 413.96 -18.05 z M 414.98 -20.59 L 420.44 -11.13 C 421.15 -11.85 422.02 -12.20 423.03 -12.20 L 417.57 -21.66 C 416.56 -21.66 415.69 -21.30 414.98 -20.59 z M 417.57 -21.66 L 423.03 -12.20 L 444.69 -12.20 L 439.23 -21.66 L 417.57 -21.66 z M 439.23 -21.66 L 444.69 -12.20 C 445.67 -12.20 446.52 -11.85 447.23 -11.13 L 441.77 -20.59 C 441.06 -21.30 440.21 -21.66 439.23 -21.66 z M 441.77 -20.59 L 447.23 -11.13 C 447.48 -10.88 447.68 -10.62 447.84 -10.34 L 442.38 -19.80 C 442.22 -20.08 442.02 -20.34 441.77 -20.59 z M 421.18 -10.83 C 419.19 -10.83 417.48 -11.53 416.05 -12.92 C 415.59 -13.39 415.20 -13.90 414.90 -14.43 C 414.27 -15.51 413.96 -16.72 413.96 -18.05 C 413.96 -19.02 414.30 -19.87 414.98 -20.59 C 415.69 -21.30 416.56 -21.66 417.57 -21.66 L 439.23 -21.66 C 440.21 -21.66 441.06 -21.30 441.77 -20.59 C 442.02 -20.34 442.22 -20.08 442.38 -19.80 C 442.69 -19.27 442.84 -18.69 442.84 -18.05 L 442.84 -14.44 C 442.84 -13.43 442.48 -12.56 441.77 -11.84 C 441.06 -11.17 440.21 -10.83 439.23 -10.83 z" stroke-linecap="round"></path></g><g id="flocBlu5IVK78x5XJxLPQ"><g><g id="2JmVnGelUkrSk0OwMDffj"><path style="stroke: rgb(193,193,193); stroke-width: 0; stroke-dasharray: none; stroke-linecap: butt; stroke-dashoffset: 0; stroke-linejoin: miter; stroke-miterlimit: 4; fill: rgb(255,255,255); fill-rule: nonzero; opacity: 1;" d="M89.53954,95.94494c-1.01,0 -1.88,-0.34 -2.59,-1.02c-0.67,-0.71 -1.01,-1.58 -1.01,-2.59c0,-0.98 0.34,-1.83 1.01,-2.54c0.71,-0.71 1.58,-1.07 2.59,-1.07h30.69c0.49,0 0.9,-0.17 1.24,-0.51c0.37,-0.33 0.56,-0.76 0.56,-1.29c0,-0.49 -0.19,-0.91 -0.56,-1.24c-0.34,-0.38 -0.75,-0.57 -1.24,-0.57h-27.08c-2.03,0 -3.74,-0.7 -5.13,-2.09c-1.39,-1.43 -2.08,-3.14 -2.08,-5.13v-3.61c0,-1.99 0.69,-3.68 2.08,-5.07c1.43,-1.43 3.14,-2.15 5.13,-2.15h39.71c0.98,0 1.83,0.36 2.54,1.08c0.71,0.71 1.07,1.56 1.07,2.53c0,1.02 -0.36,1.89 -1.07,2.6c-0.71,0.67 -1.56,1.01 -2.54,1.01h-30.68c-0.53,0 -0.96,0.19 -1.3,0.57c-0.34,0.33 -0.51,0.75 -0.51,1.24c0,0.53 0.17,0.96 0.51,1.29c0.34,0.34 0.77,0.51 1.3,0.51h27.07c1.99,0 3.69,0.72 5.08,2.15c1.43,1.43 2.14,3.12 2.14,5.07v3.61c0,2.03 -0.71,3.74 -2.14,5.13c-1.43,1.39 -3.13,2.09 -5.08,2.09zM147.29954,95.94494c-2.03,0 -3.74,-0.7 -5.13,-2.09c-1.39,-1.43 -2.09,-3.14 -2.09,-5.13v-14.44c0,-1.99 0.7,-3.68 2.09,-5.07c1.43,-1.43 3.14,-2.15 5.13,-2.15h36.09c1.99,0 3.69,0.72 5.08,2.15c1.43,1.43 2.14,3.12 2.14,5.07v14.44c0,2.03 -0.71,3.74 -2.14,5.13c-1.43,1.39 -3.12,2.09 -5.08,2.09zM172.55954,81.50494c0.98,0 1.83,-0.34 2.54,-1.01c0.71,-0.72 1.07,-1.59 1.07,-2.6c0,-0.97 -0.36,-1.82 -1.07,-2.54c-0.71,-0.71 -1.56,-1.07 -2.54,-1.07h-14.43c-1.02,0 -1.89,0.36 -2.6,1.07c-0.67,0.72 -1.01,1.57 -1.01,2.54c0,1.01 0.34,1.88 1.01,2.6c0.71,0.67 1.58,1.01 2.6,1.01zM201.43954,95.94494c-2.03,0 -3.74,-0.7 -5.13,-2.09c-1.39,-1.43 -2.09,-3.14 -2.09,-5.13v-17.99c0,-1.01 0.34,-1.88 1.02,-2.59c0.71,-0.72 1.58,-1.08 2.59,-1.08h7.22c0.98,0 1.83,0.36 2.54,1.08c0.71,0.71 1.07,1.56 1.07,2.53v10.83c0,1.01 0.34,1.88 1.02,2.6c0.71,0.67 1.58,1.01 2.59,1.01h14.44c0.97,0 1.82,-0.34 2.54,-1.01c0.71,-0.72 1.07,-1.59 1.07,-2.6v-10.77c0,-1.01 0.34,-1.88 1.01,-2.59c0.71,-0.72 1.58,-1.08 2.6,-1.08h7.22c0.97,0 1.82,0.36 2.53,1.08c0.72,0.71 1.08,1.56 1.08,2.53v18.05c0,2.03 -0.72,3.74 -2.15,5.13c-1.43,1.39 -3.12,2.09 -5.07,2.09zM255.57954,95.94494c-2.03,0 -3.74,-0.7 -5.13,-2.09c-1.39,-1.43 -2.08,-3.14 -2.08,-5.13v-25.21c0,-1.01 0.34,-1.88 1.01,-2.59c0.71,-0.72 1.58,-1.08 2.59,-1.08h7.22c0.98,0 1.83,0.36 2.54,1.08c0.71,0.71 1.07,1.56 1.07,2.53v18.05c0,1.01 -0.36,1.88 -1.07,2.6c-0.71,0.67 -1.56,1.01 -2.54,1.01h-1.8c-0.53,0 -0.96,0.19 -1.3,0.57c-0.34,0.33 -0.51,0.75 -0.51,1.24c0,0.53 0.17,0.96 0.51,1.29c0.34,0.34 0.77,0.51 1.3,0.51h1.8c0.98,0 1.83,0.36 2.54,1.07c0.71,0.71 1.07,1.56 1.07,2.54c0,1.01 -0.36,1.88 -1.07,2.59c-0.71,0.68 -1.56,1.02 -2.54,1.02zM270.01954,95.94494c-1.01,0 -1.88,-0.34 -2.59,-1.02c-0.68,-0.71 -1.02,-1.58 -1.02,-2.59v-28.82c0,-1.01 0.34,-1.88 1.02,-2.59c0.71,-0.72 1.58,-1.08 2.59,-1.08h7.22c0.98,0 1.83,0.36 2.54,1.08c0.71,0.71 1.07,1.56 1.07,2.53c0,1.02 0.34,1.89 1.02,2.6c0.71,0.67 1.58,1.01 2.59,1.01h25.27c1.99,0 3.68,0.72 5.07,2.15c1.43,1.43 2.15,3.12 2.15,5.07v14.44c0,2.03 -0.72,3.74 -2.15,5.13c-1.43,1.39 -3.12,2.09 -5.07,2.09zM295.28954,85.11494c1.95,0 3.65,-0.7 5.08,-2.09c1.43,-1.43 2.14,-3.14 2.14,-5.13c0,-0.97 -0.36,-1.82 -1.07,-2.54c-0.71,-0.71 -1.56,-1.07 -2.54,-1.07h-21.66c-1.01,0 -1.88,0.36 -2.59,1.07c-0.68,0.72 -1.02,1.57 -1.02,2.54v3.61c0,1.01 0.34,1.88 1.02,2.6c0.71,0.67 1.58,1.01 2.59,1.01zM327.77954,95.94494c-2.03,0 -3.75,-0.7 -5.14,-2.09c-1.39,-1.43 -2.08,-3.14 -2.08,-5.13v-14.44c0,-1.99 0.69,-3.68 2.08,-5.07c1.43,-1.43 3.15,-2.15 5.14,-2.15h36.09c1.99,0 3.69,0.72 5.08,2.15c1.43,1.43 2.14,3.12 2.14,5.07v14.44c0,2.03 -0.71,3.74 -2.14,5.13c-1.43,1.39 -3.13,2.09 -5.08,2.09zM353.03954,81.50494c0.98,0 1.83,-0.34 2.54,-1.01c0.71,-0.72 1.07,-1.59 1.07,-2.6c0,-0.97 -0.36,-1.82 -1.07,-2.54c-0.71,-0.71 -1.56,-1.07 -2.54,-1.07h-14.44c-1.01,0 -1.88,0.36 -2.59,1.07c-0.68,0.72 -1.02,1.57 -1.02,2.54c0,1.01 0.34,1.88 1.02,2.6c0.71,0.67 1.58,1.01 2.59,1.01zM381.91954,95.94494c-2.03,0 -3.74,-0.7 -5.13,-2.09c-1.39,-1.43 -2.09,-3.14 -2.09,-5.13v-17.99c0,-1.01 0.34,-1.88 1.01,-2.59c0.72,-0.72 1.59,-1.08 2.6,-1.08h7.22c0.97,0 1.82,0.36 2.54,1.08c0.71,0.71 1.07,1.56 1.07,2.53v10.83c0,1.01 0.34,1.88 1.01,2.6c0.71,0.67 1.58,1.01 2.6,1.01h14.44c0.97,0 1.82,-0.34 2.53,-1.01c0.72,-0.72 1.08,-1.59 1.08,-2.6v-10.77c0,-1.01 0.34,-1.88 1.01,-2.59c0.71,-0.72 1.58,-1.08 2.59,-1.08h7.22c0.98,0 1.83,0.36 2.54,1.08c0.71,0.71 1.07,1.56 1.07,2.53v18.05c0,2.03 -0.71,3.74 -2.14,5.13c-1.43,1.39 -3.12,2.09 -5.08,2.09zM432.44954,95.94494c-1.01,0 -1.88,-0.34 -2.59,-1.02c-0.68,-0.71 -1.02,-1.58 -1.02,-2.59v-18.05c0,-1.99 0.7,-3.68 2.09,-5.07c1.43,-1.43 3.14,-2.15 5.13,-2.15h36.1c1.99,0 3.68,0.72 5.07,2.15c1.43,1.43 2.15,3.12 2.15,5.07v18.05c0,1.01 -0.36,1.88 -1.07,2.59c-0.72,0.68 -1.57,1.02 -2.54,1.02h-7.22c-1.01,0 -1.88,-0.34 -2.6,-1.02c-0.67,-0.71 -1.01,-1.58 -1.01,-2.59v-10.83c0,-0.97 -0.36,-1.82 -1.07,-2.54c-0.71,-0.71 -1.56,-1.07 -2.54,-1.07h-14.44c-1.01,0 -1.88,0.36 -2.59,1.07c-0.68,0.72 -1.02,1.57 -1.02,2.54v10.83c0,1.01 -0.36,1.88 -1.07,2.59c-0.71,0.68 -1.56,1.02 -2.54,1.02zM490.20954,95.94494c-2.03,0 -3.75,-0.7 -5.14,-2.09c-1.39,-1.43 -2.08,-3.14 -2.08,-5.13v-14.44c0,-1.99 0.69,-3.68 2.08,-5.07c1.43,-1.43 3.15,-2.15 5.14,-2.15h25.26c0.98,0 1.83,-0.34 2.54,-1.01c0.71,-0.71 1.07,-1.58 1.07,-2.6v0.06c0,-1.01 0.34,-1.88 1.02,-2.59c0.71,-0.72 1.58,-1.08 2.59,-1.08h7.22c0.98,0 1.83,0.36 2.54,1.08c0.71,0.71 1.07,1.56 1.07,2.53v28.88c0,1.01 -0.36,1.88 -1.07,2.59c-0.71,0.68 -1.56,1.02 -2.54,1.02zM522.68954,85.11494c0.98,0 1.83,-0.34 2.54,-1.01c0.71,-0.72 1.07,-1.59 1.07,-2.6v-3.61c0,-0.97 -0.36,-1.82 -1.07,-2.54c-0.71,-0.71 -1.56,-1.07 -2.54,-1.07h-21.66c-1.01,0 -1.88,0.36 -2.59,1.07c-0.68,0.72 -1.02,1.57 -1.02,2.54c0,1.99 0.7,3.7 2.09,5.13c1.43,1.39 3.14,2.09 5.13,2.09z" stroke-linecap="round"></path></g></g></g><g id="SY6B_AJIM3vhVSBSFzz4E"><path style="stroke: rgb(193,193,193); stroke-width: 0; stroke-dasharray: none; stroke-linecap: butt; stroke-dashoffset: 0; stroke-linejoin: miter; stroke-miterlimit: 4; fill: rgb(33,33,41); fill-rule: nonzero; opacity: 1;" transform="matrix(1 0 0 1 81.657055 59.844936)  translate(1.802485, 36.1)" d="" stroke-linecap="round"></path></g><g id="1PBiP9qfOlmbElAi-qR6M"><path style="stroke: rgb(193,193,193); stroke-width: 0; stroke-dasharray: none; stroke-linecap: butt; stroke-dashoffset: 0; stroke-linejoin: miter; stroke-miterlimit: 4; fill: rgb(193,193,193); fill-rule: nonzero; opacity: 1;" transform="matrix(1 0 0 1 81.657055 59.844936)  translate(1.802485, 36.1)" d="" stroke-linecap="round"></path></g><g id="-M8GA8EoA9mqM34Ng5Odn"><path style="stroke: rgb(33,33,41); stroke-width: 8.941967633434635; stroke-dasharray: none; stroke-linecap: butt; stroke-dashoffset: 0; stroke-linejoin: round; stroke-miterlimit: 4; fill: rgb(33,33,41); fill-rule: nonzero; opacity: 1;" transform="matrix(1 0 0 1 186.063211 100.889501)  translate(0.820535, 20.88)" d="M 39.79 -10.07 L 42.04 -6.17 C 42.43 -5.49 43.16 -5.04 43.99 -5.04 L 41.73 -8.95 C 40.90 -8.95 40.18 -9.40 39.79 -10.07 z M 41.73 -8.95 L 43.99 -5.04 L 46.97 -5.04 L 44.71 -8.95 L 41.73 -8.95 z M 44.71 -8.95 L 46.97 -5.04 C 47.39 -5.04 47.72 -5.37 47.72 -5.79 L 45.46 -9.70 C 45.46 -9.28 45.13 -8.95 44.71 -8.95 z M 45.46 -9.70 L 47.72 -5.79 L 47.72 -7.28 L 45.46 -11.19 L 45.46 -9.70 z M 45.46 -11.19 L 47.72 -7.28 C 47.72 -7.42 47.68 -7.54 47.62 -7.65 L 45.36 -11.56 C 45.42 -11.45 45.46 -11.32 45.46 -11.19 z M 42.58 -12.30 L 44.84 -8.39 C 44.77 -8.51 44.74 -8.63 44.74 -8.77 L 42.48 -12.68 C 42.48 -12.54 42.52 -12.41 42.58 -12.30 z M 42.48 -12.68 L 44.74 -8.77 L 44.74 -13.24 L 42.48 -17.15 L 42.48 -12.68 z M 42.48 -17.15 L 44.74 -13.24 C 44.74 -13.38 44.70 -13.51 44.64 -13.62 L 42.38 -17.53 C 42.44 -17.42 42.48 -17.29 42.48 -17.15 z M 39.49 -11.19 C 39.49 -10.78 39.60 -10.40 39.79 -10.07 C 40.18 -9.40 40.90 -8.95 41.73 -8.95 L 44.71 -8.95 C 45.13 -8.95 45.46 -9.28 45.46 -9.70 L 45.46 -11.19 C 45.46 -11.32 45.42 -11.45 45.36 -11.56 C 45.23 -11.78 44.99 -11.93 44.71 -11.93 L 43.22 -11.93 C 42.95 -11.93 42.71 -12.08 42.58 -12.30 C 42.52 -12.41 42.48 -12.54 42.48 -12.68 L 42.48 -17.15 C 42.48 -17.29 42.44 -17.42 42.38 -17.53 C 42.25 -17.75 42.01 -17.90 41.73 -17.90 L 40.24 -17.90 C 39.83 -17.90 39.49 -17.57 39.49 -17.15 z M 39.59 -0.37 L 41.85 3.53 C 41.98 3.76 42.22 3.91 42.50 3.91 L 40.24 0.00 C 39.96 0.00 39.72 -0.15 39.59 -0.37 z M 40.24 0.00 L 42.50 3.91 L 51.45 3.91 L 49.19 0.00 L 40.24 0.00 z M 49.19 0.00 L 51.45 3.91 C 52.68 3.91 53.69 2.91 53.69 1.67 L 51.43 -2.24 C 51.43 -1.00 50.42 0.00 49.19 0.00 z M 51.43 -2.24 L 53.69 1.67 L 53.69 -4.29 L 51.43 -8.20 L 51.43 -2.24 z M 51.43 -8.20 L 53.69 -4.29 C 53.69 -4.79 53.86 -5.21 54.22 -5.57 L 51.96 -9.48 C 51.60 -9.12 51.43 -8.70 51.43 -8.20 z M 51.96 -9.48 L 54.22 -5.57 L 56.14 -7.49 L 53.88 -11.40 L 51.96 -9.48 z M 53.88 -11.40 L 56.14 -7.49 C 56.49 -7.85 56.67 -8.27 56.67 -8.77 L 54.41 -12.68 C 54.41 -12.18 54.23 -11.76 53.88 -11.40 z M 54.41 -12.68 L 56.67 -8.77 L 56.67 -13.24 L 54.41 -17.15 L 54.41 -12.68 z M 54.41 -17.15 L 56.67 -13.24 C 56.67 -13.38 56.63 -13.51 56.57 -13.62 L 54.31 -17.53 C 54.37 -17.42 54.41 -17.29 54.41 -17.15 z M 48.44 -3.73 C 48.44 -3.32 48.11 -2.98 47.70 -2.98 L 40.24 -2.98 C 39.83 -2.98 39.49 -2.65 39.49 -2.24 L 39.49 -0.75 C 39.49 -0.61 39.53 -0.48 39.59 -0.37 C 39.72 -0.15 39.96 -0.00 40.24 -0.00 L 49.19 -0.00 C 50.42 -0.00 51.43 -1.00 51.43 -2.24 L 51.43 -8.20 C 51.43 -8.70 51.60 -9.12 51.96 -9.48 L 53.88 -11.40 C 54.23 -11.76 54.41 -12.18 54.41 -12.68 L 54.41 -17.15 C 54.41 -17.29 54.37 -17.42 54.31 -17.53 C 54.18 -17.75 53.94 -17.90 53.66 -17.90 L 49.19 -17.90 C 48.77 -17.90 48.44 -17.57 48.44 -17.15 z M 59.88 -9.32 L 62.14 -5.41 C 62.27 -5.19 62.50 -5.04 62.78 -5.04 L 60.52 -8.95 C 60.25 -8.95 60.01 -9.10 59.88 -9.32 z M 60.52 -8.95 L 62.78 -5.04 L 64.28 -5.04 L 62.02 -8.95 L 60.52 -8.95 z M 62.02 -8.95 L 64.28 -5.04 C 64.69 -5.04 65.02 -5.37 65.02 -5.79 L 62.76 -9.70 C 62.76 -9.28 62.43 -8.95 62.02 -8.95 z M 62.76 -9.70 L 65.02 -5.79 L 65.02 -10.26 L 62.76 -14.17 L 62.76 -9.70 z M 62.76 -14.17 L 65.02 -10.26 C 65.02 -10.67 65.35 -11.01 65.77 -11.01 L 63.51 -14.92 C 63.09 -14.92 62.76 -14.58 62.76 -14.17 z M 63.51 -14.92 L 65.77 -11.01 L 73.23 -11.01 L 70.97 -14.92 L 63.51 -14.92 z M 70.97 -14.92 L 73.23 -11.01 C 73.50 -11.01 73.74 -10.86 73.87 -10.64 L 71.61 -14.55 C 71.48 -14.77 71.24 -14.92 70.97 -14.92 z M 68.83 -0.37 L 71.09 3.54 C 71.22 3.76 71.45 3.91 71.73 3.91 L 69.47 0.00 C 69.20 0.00 68.96 -0.15 68.83 -0.37 z M 69.47 0.00 L 71.73 3.91 L 74.72 3.91 L 72.46 0.00 L 69.47 0.00 z M 72.46 0.00 L 74.72 3.91 C 75.95 3.91 76.96 2.91 76.96 1.67 L 74.70 -2.24 C 74.70 -1.00 73.69 0.00 72.46 0.00 z M 74.70 -2.24 L 76.96 1.67 L 76.96 -13.24 L 74.70 -17.15 L 74.70 -2.24 z M 74.70 -17.15 L 76.96 -13.24 C 76.96 -13.38 76.92 -13.51 76.86 -13.62 L 74.60 -17.53 C 74.66 -17.42 74.70 -17.29 74.70 -17.15 z M 68.83 -18.27 L 71.09 -14.36 C 71.02 -14.47 70.99 -14.60 70.99 -14.74 L 68.73 -18.65 C 68.73 -18.51 68.77 -18.38 68.83 -18.27 z M 68.73 -18.65 L 70.99 -14.74 L 70.99 -16.23 L 68.73 -20.14 L 68.73 -18.65 z M 68.73 -20.14 L 70.99 -16.23 C 70.99 -16.37 70.95 -16.49 70.89 -16.60 L 68.63 -20.51 C 68.69 -20.40 68.73 -20.27 68.73 -20.14 z M 66.49 -20.88 C 66.08 -20.88 65.75 -20.55 65.75 -20.14 L 65.75 -18.65 C 65.75 -18.23 65.41 -17.90 65.00 -17.90 L 60.52 -17.90 C 60.11 -17.90 59.78 -17.57 59.78 -17.15 L 59.78 -9.70 C 59.78 -9.56 59.82 -9.43 59.88 -9.32 C 60.01 -9.10 60.25 -8.95 60.52 -8.95 L 62.02 -8.95 C 62.43 -8.95 62.76 -9.28 62.76 -9.70 L 62.76 -14.17 C 62.76 -14.58 63.09 -14.92 63.51 -14.92 L 70.97 -14.92 C 71.24 -14.92 71.48 -14.77 71.61 -14.55 C 71.67 -14.44 71.71 -14.31 71.71 -14.17 L 71.71 -9.70 C 71.71 -9.20 71.54 -8.77 71.19 -8.43 L 69.25 -6.49 C 68.90 -6.14 68.73 -5.72 68.73 -5.22 L 68.73 -0.75 C 68.73 -0.61 68.77 -0.48 68.83 -0.37 C 68.96 -0.15 69.20 -0.00 69.47 -0.00 L 72.46 -0.00 C 73.69 -0.00 74.70 -1.00 74.70 -2.24 L 74.70 -17.15 C 74.70 -17.29 74.66 -17.42 74.60 -17.53 C 74.47 -17.75 74.23 -17.90 73.95 -17.90 L 69.47 -17.90 C 69.20 -17.90 68.96 -18.05 68.83 -18.27 C 68.77 -18.38 68.73 -18.51 68.73 -18.65 L 68.73 -20.14 C 68.73 -20.27 68.69 -20.40 68.63 -20.51 C 68.50 -20.73 68.26 -20.88 67.98 -20.88 z M 86.13 -0.37 L 88.39 3.54 C 88.52 3.76 88.76 3.91 89.04 3.91 L 86.78 0.00 C 86.50 0.00 86.26 -0.15 86.13 -0.37 z M 86.78 0.00 L 89.04 3.91 L 95.00 3.91 L 92.74 0.00 L 86.78 0.00 z M 92.74 0.00 L 95.00 3.91 C 96.24 3.91 97.24 2.91 97.24 1.67 L 94.98 -2.24 C 94.98 -1.00 93.98 0.00 92.74 0.00 z M 94.98 -2.24 L 97.24 1.67 L 97.24 -7.28 L 94.98 -11.19 L 94.98 -2.24 z M 94.98 -11.19 L 97.24 -7.28 C 97.24 -7.42 97.20 -7.54 97.14 -7.65 L 94.88 -11.56 C 94.94 -11.45 94.98 -11.33 94.98 -11.19 z M 89.11 -6.35 L 91.36 -2.44 C 91.30 -2.54 91.27 -2.67 91.27 -2.80 L 89.01 -6.71 C 89.01 -6.58 89.05 -6.45 89.11 -6.35 z M 89.01 -6.71 L 91.27 -2.80 L 91.27 -13.24 L 89.01 -17.15 L 89.01 -6.71 z M 89.01 -17.15 L 91.27 -13.24 C 91.27 -13.38 91.23 -13.51 91.17 -13.62 L 88.91 -17.53 C 88.97 -17.42 89.01 -17.29 89.01 -17.15 z M 86.03 -0.75 C 86.03 -0.61 86.07 -0.48 86.13 -0.37 C 86.26 -0.15 86.50 0.00 86.78 0.00 L 92.74 0.00 C 93.98 0.00 94.98 -1.00 94.98 -2.24 L 94.98 -11.19 C 94.98 -11.33 94.94 -11.45 94.88 -11.56 C 94.75 -11.78 94.51 -11.93 94.24 -11.93 L 92.74 -11.93 C 92.33 -11.93 92.00 -11.60 92.00 -11.19 L 92.00 -6.71 C 92.00 -6.30 91.67 -5.97 91.25 -5.97 L 89.76 -5.97 C 89.48 -5.97 89.24 -6.12 89.11 -6.35 C 89.05 -6.45 89.01 -6.58 89.01 -6.71 L 89.01 -17.15 C 89.01 -17.29 88.97 -17.42 88.91 -17.53 C 88.78 -17.75 88.54 -17.90 88.27 -17.90 L 86.78 -17.90 C 86.36 -17.90 86.03 -17.57 86.03 -17.15 z M 80.16 -0.37 L 82.42 3.53 C 82.55 3.76 82.79 3.91 83.07 3.91 L 80.81 0.00 C 80.53 0.00 80.29 -0.15 80.16 -0.37 z M 80.81 0.00 L 83.07 3.91 L 84.56 3.91 L 82.30 0.00 L 80.81 0.00 z M 82.30 0.00 L 84.56 3.91 C 84.98 3.91 85.31 3.58 85.31 3.16 L 83.05 -0.75 C 83.05 -0.33 82.72 0.00 82.30 0.00 z M 83.05 -0.75 L 85.31 3.16 L 85.31 -10.26 L 83.05 -14.17 L 83.05 -0.75 z M 83.05 -14.17 L 85.31 -10.26 C 85.31 -10.40 85.27 -10.53 85.21 -10.64 L 82.95 -14.55 C 83.01 -14.43 83.05 -14.31 83.05 -14.17 z M 80.06 -0.75 C 80.06 -0.61 80.10 -0.48 80.16 -0.37 C 80.29 -0.15 80.53 0.00 80.81 0.00 L 82.30 0.00 C 82.72 0.00 83.05 -0.33 83.05 -0.75 L 83.05 -14.17 C 83.05 -14.31 83.01 -14.43 82.95 -14.55 C 82.82 -14.77 82.58 -14.92 82.30 -14.92 L 80.81 -14.92 C 80.40 -14.92 80.06 -14.58 80.06 -14.17 z M 116.11 -16.03 L 118.37 -12.13 C 118.50 -11.90 118.74 -11.75 119.02 -11.75 L 116.76 -15.66 C 116.48 -15.66 116.24 -15.81 116.11 -16.03 z M 116.76 -15.66 L 119.02 -11.75 L 119.76 -11.75 L 117.50 -15.66 L 116.76 -15.66 z M 117.50 -15.66 L 119.76 -11.75 C 120.18 -11.75 120.51 -12.08 120.51 -12.50 L 118.25 -16.41 C 118.25 -15.99 117.92 -15.66 117.50 -15.66 z M 118.25 -16.41 L 120.51 -12.50 L 120.51 -16.23 L 118.25 -20.14 L 118.25 -16.41 z M 118.25 -20.14 L 120.51 -16.23 C 120.51 -16.37 120.47 -16.49 120.41 -16.60 L 118.15 -20.51 C 118.21 -20.40 118.25 -20.27 118.25 -20.14 z M 116.76 -20.88 C 116.35 -20.88 116.01 -20.55 116.01 -20.14 L 116.01 -16.41 C 116.01 -16.27 116.05 -16.14 116.11 -16.03 C 116.24 -15.81 116.48 -15.66 116.76 -15.66 L 117.50 -15.66 C 117.92 -15.66 118.25 -15.99 118.25 -16.41 L 118.25 -20.14 C 118.25 -20.27 118.21 -20.40 118.15 -20.51 C 118.02 -20.73 117.78 -20.88 117.50 -20.88 z M 119.84 -16.03 L 122.10 -12.12 C 122.23 -11.90 122.47 -11.75 122.75 -11.75 L 120.49 -15.66 C 120.21 -15.66 119.97 -15.81 119.84 -16.03 z M 120.49 -15.66 L 122.75 -11.75 L 123.49 -11.75 L 121.23 -15.66 L 120.49 -15.66 z M 121.23 -15.66 L 123.49 -11.75 C 123.91 -11.75 124.24 -12.08 124.24 -12.50 L 121.98 -16.41 C 121.98 -15.99 121.65 -15.66 121.23 -15.66 z M 121.98 -16.41 L 124.24 -12.50 L 124.24 -16.23 L 121.98 -20.14 L 121.98 -16.41 z M 121.98 -20.14 L 124.24 -16.23 C 124.24 -16.37 124.20 -16.49 124.14 -16.60 L 121.88 -20.51 C 121.94 -20.40 121.98 -20.27 121.98 -20.14 z M 120.49 -20.88 C 120.07 -20.88 119.74 -20.55 119.74 -20.14 L 119.74 -16.41 C 119.74 -16.27 119.78 -16.14 119.84 -16.03 C 119.97 -15.81 120.21 -15.66 120.49 -15.66 L 121.23 -15.66 C 121.65 -15.66 121.98 -15.99 121.98 -16.41 L 121.98 -20.14 C 121.98 -20.27 121.94 -20.40 121.88 -20.51 C 121.75 -20.73 121.51 -20.88 121.23 -20.88 z M 111.54 -14.92 L 113.80 -11.01 C 114.07 -11.01 114.31 -10.87 114.44 -10.65 L 112.18 -14.56 C 112.05 -14.78 111.82 -14.92 111.54 -14.92 z M 112.38 -0.37 L 114.64 3.54 C 114.77 3.76 115.01 3.91 115.29 3.91 L 113.03 0.00 C 112.75 0.00 112.51 -0.15 112.38 -0.37 z M 113.03 0.00 L 115.29 3.91 L 116.78 3.91 L 114.52 0.00 L 113.03 0.00 z M 114.52 0.00 L 116.78 3.91 C 117.20 3.91 117.53 3.58 117.53 3.16 L 115.27 -0.75 C 115.27 -0.33 114.94 0.00 114.52 0.00 z M 115.27 -0.75 L 117.53 3.16 L 117.53 -11.75 L 115.27 -15.66 L 115.27 -0.75 z M 115.27 -15.66 L 117.53 -11.75 C 117.53 -12.16 117.42 -12.54 117.23 -12.87 L 114.97 -16.78 C 115.16 -16.45 115.27 -16.07 115.27 -15.66 z M 109.40 -15.29 L 111.65 -11.38 C 111.78 -11.16 112.02 -11.01 112.31 -11.01 L 110.05 -14.92 C 109.77 -14.92 109.53 -15.06 109.40 -15.29 z M 110.05 -14.92 L 112.31 -11.01 L 113.80 -11.01 L 111.54 -14.92 L 110.05 -14.92 z M 111.54 -14.92 C 111.82 -14.92 112.05 -14.78 112.18 -14.56 C 112.24 -14.44 112.28 -14.31 112.28 -14.17 L 112.28 -0.75 C 112.28 -0.61 112.32 -0.48 112.38 -0.37 C 112.51 -0.15 112.75 0.00 113.03 0.00 L 114.52 0.00 C 114.94 0.00 115.27 -0.33 115.27 -0.75 L 115.27 -15.66 C 115.27 -16.07 115.16 -16.45 114.97 -16.78 C 114.58 -17.45 113.86 -17.90 113.03 -17.90 L 110.05 -17.90 C 109.63 -17.90 109.30 -17.57 109.30 -17.15 L 109.30 -15.66 C 109.30 -15.52 109.34 -15.39 109.40 -15.29 C 109.53 -15.06 109.77 -14.92 110.05 -14.92 z M 104.08 0.00 L 106.34 3.91 C 107.58 3.91 108.58 2.91 108.58 1.67 L 106.32 -2.24 C 106.32 -1.00 105.32 0.00 104.08 0.00 z M 106.32 -2.24 L 108.58 1.67 L 108.58 -10.26 L 106.32 -14.17 L 106.32 -2.24 z M 106.32 -14.17 L 108.58 -10.26 C 108.58 -10.40 108.54 -10.53 108.48 -10.64 L 106.22 -14.55 C 106.28 -14.44 106.32 -14.31 106.32 -14.17 z M 100.45 -0.37 L 102.71 3.54 C 102.84 3.76 103.08 3.91 103.36 3.91 L 101.10 0.00 C 100.82 0.00 100.58 -0.15 100.45 -0.37 z M 101.10 0.00 L 103.36 3.91 L 106.34 3.91 L 104.08 0.00 L 101.10 0.00 z M 104.08 0.00 C 105.32 0.00 106.32 -1.00 106.32 -2.24 L 106.32 -14.17 C 106.32 -14.31 106.28 -14.44 106.22 -14.55 C 106.09 -14.77 105.85 -14.92 105.57 -14.92 L 104.08 -14.92 C 103.66 -14.92 103.33 -14.59 103.33 -14.17 L 103.33 -10.44 C 103.33 -10.06 103.18 -9.54 102.80 -9.17 L 100.88 -7.24 C 100.53 -6.89 100.35 -6.46 100.35 -5.97 L 100.35 -0.75 C 100.35 -0.61 100.39 -0.48 100.45 -0.37 C 100.58 -0.15 100.82 -0.00 101.10 -0.00 z M 126.70 -9.32 L 128.96 -5.42 C 129.09 -5.19 129.33 -5.04 129.61 -5.04 L 127.35 -8.95 C 127.07 -8.95 126.83 -9.10 126.70 -9.32 z M 127.35 -8.95 L 129.61 -5.04 L 131.10 -5.04 L 128.84 -8.95 L 127.35 -8.95 z M 128.84 -8.95 L 131.10 -5.04 C 131.51 -5.04 131.85 -5.37 131.85 -5.79 L 129.59 -9.70 C 129.59 -9.28 129.25 -8.95 128.84 -8.95 z M 129.59 -9.70 L 131.85 -5.79 L 131.85 -10.26 L 129.59 -14.17 L 129.59 -9.70 z M 129.59 -14.17 L 131.85 -10.26 C 131.85 -10.67 132.18 -11.01 132.59 -11.01 L 130.33 -14.92 C 129.92 -14.92 129.59 -14.58 129.59 -14.17 z M 130.33 -14.92 L 132.59 -11.01 L 140.05 -11.01 L 137.79 -14.92 L 130.33 -14.92 z M 137.79 -14.92 L 140.05 -11.01 C 140.32 -11.01 140.57 -10.86 140.70 -10.63 L 138.44 -14.54 C 138.31 -14.77 138.07 -14.92 137.79 -14.92 z M 135.65 -0.37 L 137.91 3.53 C 138.04 3.76 138.28 3.91 138.56 3.91 L 136.30 0.00 C 136.02 0.00 135.78 -0.15 135.65 -0.37 z M 136.30 0.00 L 138.56 3.91 L 141.54 3.91 L 139.28 0.00 L 136.30 0.00 z M 139.28 0.00 L 141.54 3.91 C 142.78 3.91 143.78 2.91 143.78 1.67 L 141.52 -2.24 C 141.52 -1.00 140.52 0.00 139.28 0.00 z M 141.52 -2.24 L 143.78 1.67 L 143.78 -13.24 L 141.52 -17.15 L 141.52 -2.24 z M 141.52 -17.15 L 143.78 -13.24 C 143.78 -13.38 143.74 -13.51 143.68 -13.62 L 141.42 -17.53 C 141.48 -17.42 141.52 -17.29 141.52 -17.15 z M 135.65 -18.27 L 137.91 -14.37 C 137.84 -14.48 137.81 -14.60 137.81 -14.74 L 135.55 -18.65 C 135.55 -18.51 135.59 -18.38 135.65 -18.27 z M 135.55 -18.65 L 137.81 -14.74 L 137.81 -16.23 L 135.55 -20.14 L 135.55 -18.65 z M 135.55 -20.14 L 137.81 -16.23 C 137.81 -16.37 137.77 -16.49 137.71 -16.60 L 135.45 -20.51 C 135.51 -20.40 135.55 -20.28 135.55 -20.14 z M 133.32 -20.88 C 132.90 -20.88 132.57 -20.55 132.57 -20.14 L 132.57 -18.65 C 132.57 -18.23 132.24 -17.90 131.82 -17.90 L 127.35 -17.90 C 126.94 -17.90 126.60 -17.57 126.60 -17.15 L 126.60 -9.70 C 126.60 -9.56 126.64 -9.43 126.70 -9.32 C 126.83 -9.10 127.07 -8.95 127.35 -8.95 L 128.84 -8.95 C 129.25 -8.95 129.59 -9.28 129.59 -9.70 L 129.59 -14.17 C 129.59 -14.58 129.92 -14.92 130.33 -14.92 L 137.79 -14.92 C 138.07 -14.92 138.31 -14.77 138.44 -14.54 C 138.50 -14.43 138.54 -14.30 138.54 -14.17 L 138.54 -9.70 C 138.54 -9.20 138.36 -8.77 138.01 -8.43 L 136.08 -6.49 C 135.73 -6.14 135.55 -5.72 135.55 -5.22 L 135.55 -0.75 C 135.55 -0.61 135.59 -0.48 135.65 -0.37 C 135.78 -0.15 136.02 -0.00 136.30 -0.00 L 139.28 -0.00 C 140.52 -0.00 141.52 -1.00 141.52 -2.24 L 141.52 -17.15 C 141.52 -17.29 141.48 -17.42 141.42 -17.53 C 141.29 -17.75 141.05 -17.90 140.77 -17.90 L 136.30 -17.90 C 136.02 -17.90 135.78 -18.05 135.65 -18.27 C 135.59 -18.38 135.55 -18.51 135.55 -18.65 L 135.55 -20.14 C 135.55 -20.28 135.51 -20.40 135.45 -20.51 C 135.32 -20.73 135.08 -20.88 134.81 -20.88 z M 146.99 -15.29 L 149.24 -11.38 C 149.37 -11.16 149.61 -11.01 149.90 -11.01 L 147.64 -14.92 C 147.36 -14.92 147.12 -15.06 146.99 -15.29 z M 147.64 -14.92 L 149.90 -11.01 L 157.35 -11.01 L 155.09 -14.92 L 147.64 -14.92 z M 155.09 -14.92 L 157.35 -11.01 C 157.77 -11.01 158.10 -11.33 158.10 -11.75 L 155.84 -15.66 C 155.84 -15.24 155.51 -14.92 155.09 -14.92 z M 155.84 -15.66 L 158.10 -11.75 L 158.10 -13.24 L 155.84 -17.15 L 155.84 -15.66 z M 155.84 -17.15 L 158.10 -13.24 C 158.10 -13.38 158.06 -13.51 158.00 -13.62 L 155.74 -17.53 C 155.80 -17.42 155.84 -17.29 155.84 -17.15 z M 147.64 -17.90 C 147.22 -17.90 146.89 -17.57 146.89 -17.15 L 146.89 -15.66 C 146.89 -15.52 146.93 -15.39 146.99 -15.29 C 147.12 -15.06 147.36 -14.92 147.64 -14.92 L 155.09 -14.92 C 155.51 -14.92 155.84 -15.24 155.84 -15.66 L 155.84 -17.15 C 155.84 -17.29 155.80 -17.42 155.74 -17.53 C 155.61 -17.75 155.37 -17.90 155.09 -17.90 z M 146.99 -0.37 L 149.25 3.54 C 149.38 3.76 149.62 3.91 149.90 3.91 L 147.64 0.00 C 147.36 0.00 147.12 -0.15 146.99 -0.37 z M 147.64 0.00 L 149.90 3.91 L 154.37 3.91 L 152.11 0.00 L 147.64 0.00 z M 152.11 0.00 L 154.37 3.91 C 154.87 3.91 155.29 3.74 155.65 3.38 L 153.39 -0.53 C 153.03 -0.17 152.61 0.00 152.11 0.00 z M 153.39 -0.53 L 155.65 3.38 L 157.57 1.46 L 155.31 -2.45 L 153.39 -0.53 z M 155.31 -2.45 L 157.57 1.46 C 157.95 1.08 158.47 0.93 158.84 0.93 L 156.58 -2.98 C 156.21 -2.98 155.69 -2.83 155.31 -2.45 z M 156.58 -2.98 L 158.84 0.93 L 161.83 0.93 L 159.57 -2.98 L 156.58 -2.98 z M 159.57 -2.98 L 161.83 0.93 C 163.07 0.93 164.07 -0.07 164.07 -1.31 L 161.81 -5.22 C 161.81 -3.98 160.81 -2.98 159.57 -2.98 z M 161.81 -5.22 L 164.07 -1.31 L 164.07 -7.28 L 161.81 -11.19 L 161.81 -5.22 z M 161.81 -11.19 L 164.07 -7.28 C 164.07 -7.42 164.03 -7.55 163.97 -7.66 L 161.71 -11.56 C 161.77 -11.46 161.81 -11.33 161.81 -11.19 z M 159.57 -11.93 C 159.15 -11.93 158.82 -11.61 158.82 -11.19 L 158.82 -6.71 C 158.82 -6.29 158.50 -5.97 158.08 -5.97 L 147.64 -5.97 C 147.22 -5.97 146.89 -5.64 146.89 -5.22 L 146.89 -0.75 C 146.89 -0.61 146.93 -0.48 146.99 -0.37 C 147.12 -0.15 147.36 0.00 147.64 0.00 L 152.11 0.00 C 152.61 0.00 153.03 -0.17 153.39 -0.53 L 155.31 -2.45 C 155.69 -2.83 156.21 -2.98 156.58 -2.98 L 159.57 -2.98 C 160.81 -2.98 161.81 -3.98 161.81 -5.22 L 161.81 -11.19 C 161.81 -11.33 161.77 -11.46 161.71 -11.56 C 161.58 -11.79 161.34 -11.93 161.06 -11.93 z M 176.97 -16.03 L 179.23 -12.12 C 179.36 -11.90 179.60 -11.75 179.88 -11.75 L 177.62 -15.66 C 177.34 -15.66 177.10 -15.81 176.97 -16.03 z M 177.62 -15.66 L 179.88 -11.75 L 180.62 -11.75 L 178.36 -15.66 L 177.62 -15.66 z M 178.36 -15.66 L 180.62 -11.75 C 181.04 -11.75 181.37 -12.08 181.37 -12.50 L 179.11 -16.41 C 179.11 -15.99 178.78 -15.66 178.36 -15.66 z M 179.11 -16.41 L 181.37 -12.50 L 181.37 -16.23 L 179.11 -20.14 L 179.11 -16.41 z M 179.11 -20.14 L 181.37 -16.23 C 181.37 -16.37 181.33 -16.49 181.27 -16.60 L 179.01 -20.51 C 179.07 -20.40 179.11 -20.27 179.11 -20.14 z M 177.62 -20.88 C 177.20 -20.88 176.87 -20.55 176.87 -20.14 L 176.87 -16.41 C 176.87 -16.27 176.91 -16.14 176.97 -16.03 C 177.10 -15.81 177.34 -15.66 177.62 -15.66 L 178.36 -15.66 C 178.78 -15.66 179.11 -15.99 179.11 -16.41 L 179.11 -20.14 C 179.11 -20.27 179.07 -20.40 179.01 -20.51 C 178.88 -20.73 178.64 -20.88 178.36 -20.88 z M 180.70 -16.03 L 182.96 -12.12 C 183.09 -11.90 183.33 -11.75 183.61 -11.75 L 181.35 -15.66 C 181.07 -15.66 180.83 -15.81 180.70 -16.03 z M 181.35 -15.66 L 183.61 -11.75 L 184.35 -11.75 L 182.09 -15.66 L 181.35 -15.66 z M 182.09 -15.66 L 184.35 -11.75 C 184.77 -11.75 185.10 -12.08 185.10 -12.50 L 182.84 -16.41 C 182.84 -15.99 182.51 -15.66 182.09 -15.66 z M 182.84 -16.41 L 185.10 -12.50 L 185.10 -16.23 L 182.84 -20.14 L 182.84 -16.41 z M 182.84 -20.14 L 185.10 -16.23 C 185.10 -16.37 185.06 -16.49 185.00 -16.60 L 182.74 -20.51 C 182.80 -20.40 182.84 -20.27 182.84 -20.14 z M 181.35 -20.88 C 180.93 -20.88 180.60 -20.55 180.60 -20.14 L 180.60 -16.41 C 180.60 -16.27 180.64 -16.14 180.70 -16.03 C 180.83 -15.81 181.07 -15.66 181.35 -15.66 L 182.09 -15.66 C 182.51 -15.66 182.84 -15.99 182.84 -16.41 L 182.84 -20.14 C 182.84 -20.27 182.80 -20.40 182.74 -20.51 C 182.61 -20.73 182.37 -20.88 182.09 -20.88 z M 167.28 -0.37 L 169.54 3.54 C 169.67 3.76 169.90 3.91 170.18 3.91 L 167.92 0.00 C 167.65 0.00 167.41 -0.15 167.28 -0.37 z M 167.92 0.00 L 170.18 3.91 L 174.66 3.91 L 172.40 0.00 L 167.92 0.00 z M 172.40 0.00 L 174.66 3.91 C 175.07 3.91 175.40 3.58 175.40 3.16 L 173.14 -0.75 C 173.14 -0.33 172.81 0.00 172.40 0.00 z M 173.14 -0.75 L 175.40 3.16 L 175.40 -4.29 L 173.14 -8.20 L 173.14 -0.75 z M 173.14 -8.20 L 175.40 -4.29 C 175.40 -4.71 175.73 -5.04 176.15 -5.04 L 173.89 -8.95 C 173.47 -8.95 173.14 -8.62 173.14 -8.20 z M 173.89 -8.95 L 176.15 -5.04 L 183.61 -5.04 L 181.35 -8.95 L 173.89 -8.95 z M 181.35 -8.95 L 183.61 -5.04 C 184.02 -5.04 184.35 -5.37 184.35 -5.79 L 182.09 -9.70 C 182.09 -9.28 181.76 -8.95 181.35 -8.95 z M 182.09 -9.70 L 184.35 -5.79 L 184.35 -7.28 L 182.09 -11.19 L 182.09 -9.70 z M 182.09 -11.19 L 184.35 -7.28 C 184.35 -7.42 184.31 -7.54 184.25 -7.65 L 181.99 -11.56 C 182.05 -11.45 182.09 -11.33 182.09 -11.19 z M 173.24 -12.30 L 175.50 -8.40 C 175.43 -8.51 175.40 -8.64 175.40 -8.77 L 173.14 -12.68 C 173.14 -12.54 173.18 -12.42 173.24 -12.30 z M 173.14 -12.68 L 175.40 -8.77 L 175.40 -16.23 L 173.14 -20.14 L 173.14 -12.68 z M 173.14 -20.14 L 175.40 -16.23 C 175.40 -16.37 175.36 -16.49 175.30 -16.60 L 173.04 -20.51 C 173.10 -20.40 173.14 -20.28 173.14 -20.14 z M 170.16 -9.70 C 170.16 -9.20 169.98 -8.77 169.63 -8.42 L 167.71 -6.50 C 167.35 -6.14 167.18 -5.72 167.18 -5.22 L 167.18 -0.75 C 167.18 -0.61 167.22 -0.48 167.28 -0.37 C 167.41 -0.15 167.65 0.00 167.92 0.00 L 172.40 0.00 C 172.81 0.00 173.14 -0.33 173.14 -0.75 L 173.14 -8.20 C 173.14 -8.62 173.47 -8.95 173.89 -8.95 L 181.35 -8.95 C 181.76 -8.95 182.09 -9.28 182.09 -9.70 L 182.09 -11.19 C 182.09 -11.33 182.05 -11.45 181.99 -11.56 C 181.86 -11.78 181.62 -11.93 181.35 -11.93 L 173.89 -11.93 C 173.61 -11.93 173.37 -12.08 173.24 -12.30 C 173.18 -12.42 173.14 -12.54 173.14 -12.68 L 173.14 -20.14 C 173.14 -20.28 173.10 -20.40 173.04 -20.51 C 172.91 -20.73 172.67 -20.88 172.40 -20.88 L 170.90 -20.88 C 170.49 -20.88 170.16 -20.55 170.16 -20.14 z" stroke-linecap="round"></path></g><g id="uTaVhYB20HJvE5P8WXn0e"><g><g id="jdUlaWHOEKv7mSA8SIEox"><path style="stroke: rgb(193,193,193); stroke-width: 0; stroke-dasharray: none; stroke-linecap: butt; stroke-dashoffset: 0; stroke-linejoin: miter; stroke-miterlimit: 4; fill: rgb(255,255,255); fill-rule: nonzero; opacity: 1;" d="M226.37375,104.6195c0,-0.42 0.34,-0.75 0.75,-0.75h1.49c0.41,0 0.75,0.33 0.75,0.75v4.47c0,0.41 0.33,0.75 0.74,0.75h1.49c0.42,0 0.75,0.33 0.75,0.74v1.49c0,0.42 -0.33,0.75 -0.75,0.75h-2.98c-1.23,0 -2.24,-1 -2.24,-2.24zM235.32375,104.6195c0,-0.42 0.33,-0.75 0.75,-0.75h4.47c0.42,0 0.75,0.33 0.75,0.75v4.47c0,0.5 -0.18,0.92 -0.53,1.28l-1.92,1.92c-0.36,0.36 -0.53,0.78 -0.53,1.28v5.96c0,1.24 -1.01,2.24 -2.24,2.24h-8.95c-0.41,0 -0.75,-0.33 -0.75,-0.75v-1.49c0,-0.41 0.34,-0.74 0.75,-0.74h7.46c0.41,0 0.74,-0.34 0.74,-0.75zM254.86375,100.8895c0.42,0 0.75,0.33 0.75,0.74v1.49c0,0.42 0.33,0.75 0.74,0.75h4.48c0.41,0 0.75,0.33 0.75,0.75v14.91c0,1.24 -1.01,2.24 -2.24,2.24h-2.99c-0.41,0 -0.74,-0.33 -0.74,-0.75v-4.47c0,-0.5 0.17,-0.92 0.52,-1.27l1.94,-1.94c0.35,-0.34 0.52,-0.77 0.52,-1.27v-4.47c0,-0.41 -0.33,-0.75 -0.74,-0.75h-7.46c-0.42,0 -0.75,0.34 -0.75,0.75v4.47c0,0.42 -0.33,0.75 -0.74,0.75h-1.5c-0.41,0 -0.74,-0.33 -0.74,-0.75v-7.45c0,-0.42 0.33,-0.75 0.74,-0.75h4.48c0.41,0 0.75,-0.33 0.75,-0.75v-1.49c0,-0.41 0.33,-0.74 0.74,-0.74zM272.91375,104.6195c0,-0.42 0.33,-0.75 0.75,-0.75h1.49c0.41,0 0.74,0.33 0.74,0.75v10.44c0,0.41 0.34,0.74 0.75,0.74h1.49c0.42,0 0.75,-0.33 0.75,-0.74v-4.48c0,-0.41 0.33,-0.74 0.74,-0.74h1.5c0.41,0 0.74,0.33 0.74,0.74v8.95c0,1.24 -1,2.24 -2.24,2.24h-5.96c-0.42,0 -0.75,-0.33 -0.75,-0.75zM266.94375,107.5995c0,-0.41 0.34,-0.75 0.75,-0.75h1.49c0.42,0 0.75,0.34 0.75,0.75v13.42c0,0.42 -0.33,0.75 -0.75,0.75h-1.49c-0.41,0 -0.75,-0.33 -0.75,-0.75zM304.38375,100.8895c0.42,0 0.75,0.33 0.75,0.74v3.73c0,0.42 -0.33,0.75 -0.75,0.75h-0.74c-0.41,0 -0.75,-0.33 -0.75,-0.75v-3.73c0,-0.41 0.34,-0.74 0.75,-0.74zM308.11375,100.8895c0.42,0 0.75,0.33 0.75,0.74v3.73c0,0.42 -0.33,0.75 -0.75,0.75h-0.74c-0.42,0 -0.75,-0.33 -0.75,-0.75v-3.73c0,-0.41 0.33,-0.74 0.75,-0.74zM296.93375,106.8495c-0.42,0 -0.75,-0.32 -0.75,-0.74v-1.49c0,-0.42 0.33,-0.75 0.75,-0.75h2.98c1.24,0 2.24,1 2.24,2.24v14.91c0,0.42 -0.33,0.75 -0.75,0.75h-1.49c-0.42,0 -0.75,-0.33 -0.75,-0.75v-13.42c0,-0.42 -0.32,-0.75 -0.74,-0.75zM287.98375,121.7695c-0.42,0 -0.75,-0.33 -0.75,-0.75v-5.22c0,-0.49 0.18,-0.92 0.53,-1.27l1.92,-1.93c0.38,-0.37 0.53,-0.89 0.53,-1.27v-3.73c0,-0.42 0.33,-0.75 0.75,-0.75h1.49c0.42,0 0.75,0.33 0.75,0.75v11.93c0,1.24 -1,2.24 -2.24,2.24zM321.69375,100.8895c0.41,0 0.74,0.33 0.74,0.74v1.49c0,0.42 0.34,0.75 0.75,0.75h4.47c0.42,0 0.75,0.33 0.75,0.75v14.91c0,1.24 -1,2.24 -2.24,2.24h-2.98c-0.41,0 -0.75,-0.33 -0.75,-0.75v-4.47c0,-0.5 0.18,-0.92 0.53,-1.27l1.93,-1.94c0.35,-0.34 0.53,-0.77 0.53,-1.27v-4.47c0,-0.41 -0.34,-0.75 -0.75,-0.75h-7.46c-0.41,0 -0.74,0.34 -0.74,0.75v4.47c0,0.42 -0.34,0.75 -0.75,0.75h-1.49c-0.41,0 -0.75,-0.33 -0.75,-0.75v-7.45c0,-0.42 0.34,-0.75 0.75,-0.75h4.47c0.42,0 0.75,-0.33 0.75,-0.75v-1.49c0,-0.41 0.33,-0.74 0.75,-0.74zM341.97375,103.8695c0.42,0 0.75,0.33 0.75,0.75v1.49c0,0.42 -0.33,0.74 -0.75,0.74h-7.45c-0.42,0 -0.75,-0.32 -0.75,-0.74v-1.49c0,-0.42 0.33,-0.75 0.75,-0.75zM347.94375,109.8395c0.42,0 0.75,0.32 0.75,0.74v5.97c0,1.24 -1,2.24 -2.24,2.24h-2.99c-0.37,0 -0.89,0.15 -1.27,0.53l-1.92,1.92c-0.36,0.36 -0.78,0.53 -1.28,0.53h-4.47c-0.42,0 -0.75,-0.33 -0.75,-0.75v-4.47c0,-0.42 0.33,-0.75 0.75,-0.75h10.44c0.42,0 0.74,-0.32 0.74,-0.74v-4.48c0,-0.42 0.33,-0.74 0.75,-0.74zM365.24375,100.8895c0.42,0 0.75,0.33 0.75,0.74v3.73c0,0.42 -0.33,0.75 -0.75,0.75h-0.74c-0.42,0 -0.75,-0.33 -0.75,-0.75v-3.73c0,-0.41 0.33,-0.74 0.75,-0.74zM368.97375,100.8895c0.42,0 0.75,0.33 0.75,0.74v3.73c0,0.42 -0.33,0.75 -0.75,0.75h-0.74c-0.42,0 -0.75,-0.33 -0.75,-0.75v-3.73c0,-0.41 0.33,-0.74 0.75,-0.74zM357.04375,101.6295c0,-0.41 0.33,-0.74 0.74,-0.74h1.5c0.41,0 0.74,0.33 0.74,0.74v7.46c0,0.41 0.33,0.75 0.75,0.75h7.46c0.41,0 0.74,0.33 0.74,0.74v1.49c0,0.42 -0.33,0.75 -0.74,0.75h-7.46c-0.42,0 -0.75,0.33 -0.75,0.75v7.45c0,0.42 -0.33,0.75 -0.74,0.75h-4.48c-0.41,0 -0.74,-0.33 -0.74,-0.75v-4.47c0,-0.5 0.17,-0.92 0.53,-1.28l1.92,-1.92c0.35,-0.35 0.53,-0.78 0.53,-1.28z" stroke-linecap="round"></path></g></g></g><g id="_04voOnfUs3DLyCE90d-G"><path style="stroke: rgb(193,193,193); stroke-width: 0; stroke-dasharray: none; stroke-linecap: butt; stroke-dashoffset: 0; stroke-linejoin: miter; stroke-miterlimit: 4; fill: rgb(33,33,41); fill-rule: nonzero; opacity: 1;" transform="matrix(1 0 0 1 186.063211 100.889501)  translate(0.820535, 20.88)" d="" stroke-linecap="round"></path></g><g id="zhTIkDmIc0Y5WPyS340-z"><path style="stroke: rgb(193,193,193); stroke-width: 0; stroke-dasharray: none; stroke-linecap: butt; stroke-dashoffset: 0; stroke-linejoin: miter; stroke-miterlimit: 4; fill: rgb(193,193,193); fill-rule: nonzero; opacity: 1;" transform="matrix(1 0 0 1 186.063211 100.889501)  translate(0.820535, 20.88)" d="" stroke-linecap="round"></path></g></svg>